<svg xmlns="http://www.w3.org/2000/svg" viewBox="0 0 1919.2 101.47"><defs><style>.cls-1{fill:none;}</style></defs><g id="圖層_2" data-name="圖層 2"><g id="圖層_1-2" data-name="圖層 1"><path class="cls-1" d="M1918,43.54c-1-1.89,1.68-2,1.12-3.69-3.13-.59-15.57-2.89-36.11-6.1-21.92-3.42-57.74-8.59-103.84-13.75-51.82-5.81-105.81-10.43-160.47-13.75C1550.37,2.1,1480.8,0,1411.92,0c-22.76,0-46.3.43-70,1.28-22.51.8-45.86,2-69.4,3.59-43.33,2.9-88.11,7.06-136.9,12.72-90.34,10.47-178.93,24.33-264.6,37.73h0C817.42,63.71,766.77,71.63,716.21,78.7c-27.16,3.79-51.7,7-75,9.73C615.1,91.51,591.13,94,567.92,96c-25.49,1.86-50.86,3.26-75.39,4.16-23.45.87-46.79,1.31-69.35,1.31-36.29,0-71.8-1.13-105.56-3.38-30.69-2-60.62-5-89-8.9-47.73-6.53-91.88-15.62-131.23-27C82,57.68,67.23,52.82,53.6,47.72c-10.9-4.07-21.11-8.31-30.34-12.59C8.3,28.2.78,23.41,0,22.9v.64"/></g></g></svg>