<svg xmlns="http://www.w3.org/2000/svg" viewBox="0 0 1919.2 101.47"><defs><style>.cls-1{fill:none;}</style></defs><g id="圖層_2" data-name="圖層 2"><g id="圖層_1-2" data-name="圖層 1"><path class="cls-1" d="M0,23.54V22.9c.78.51,8.3,5.3,23.26,12.23,9.23,4.28,19.44,8.52,30.34,12.59,13.63,5.1,28.37,10,43.83,14.44,39.35,11.41,83.5,20.5,131.23,27,28.34,3.87,58.27,6.86,89,8.9,33.76,2.25,69.27,3.38,105.56,3.38,22.56,0,45.9-.44,69.35-1.31,24.53-.9,49.9-2.3,75.39-4.16,23.21-2,47.18-4.49,73.27-7.57,23.32-2.75,47.86-5.94,75-9.73,50.56-7.07,101.21-15,154.82-23.38h0c85.67-13.4,174.26-27.26,264.6-37.73,48.79-5.66,93.57-9.82,136.9-12.72,23.54-1.58,46.89-2.79,69.4-3.59,23.67-.85,47.21-1.28,70-1.28,68.88,0,138.45,2.1,206.78,6.25,54.66,3.32,108.65,7.94,160.47,13.75,46.1,5.16,81.92,10.33,103.84,13.75,20.54,3.21,33,5.51,36.11,6.1.56,1.7-2.07,1.8-1.12,3.69"/></g></g></svg>