<svg xmlns="http://www.w3.org/2000/svg" >
        <defs>
            <symbol id="LOGO" width="190" height="50" viewBox="0 0 190 50" >
              <g  data-name="Group 8" transform="translate(-172.958 -49.792)" >
                  <g id="Group_4" data-name="Group 4" transform="translate(252.743 60.1)">
                      <g id="Group_1" data-name="Group 1" transform="translate(40.701)" opacity="0.5">
                          <path id="Path_1" data-name="Path 1"
                              d="M330.631,101.858c.773-.978.426-1.252,1.2-2.23s1.175-.66,1.947-1.637.338-1.321,1.112-2.3.86-.91,1.634-1.889.91-.87,1.683-1.847.934-.853,1.708-1.832.973-.821,1.746-1.8.29-1.362,1.065-2.341,1.258-.6,2.032-1.574.7-1.037,1.476-2.016.785-.972,1.56-1.951.629-1.091,1.4-2.069.645-1.081,1.419-2.059.757-.994,1.533-1.974.8-.959,1.576-1.939.971-.826,1.746-1.806.429-1.257,1.2-2.239,1.159-.679,1.936-1.661c.246-.312.6-.3.6.1,0,1.134-.148,1.134-.148,2.269s.235,1.135.235,2.27-.038,1.135-.038,2.27.23,1.137.23,2.274-.328,1.137-.328,2.274c0,.371.682.809.948.55.84-.818.551-1.115,1.39-1.933s.88-.776,1.721-1.594,1.107-.541,1.946-1.358.411-1.258,1.251-2.076,1.177-.473,2.017-1.292.917-.74,1.759-1.559.779-.882,1.62-1.7.864-.8,1.707-1.618.82-.844,1.662-1.664c.371-.36.625-.148.315.266-.709.945-.489,1.11-1.2,2.055s-1,.732-1.705,1.678-.479,1.122-1.189,2.069-.7.955-1.407,1.9-.783.893-1.493,1.84-.516,1.093-1.226,2.039-.978.747-1.689,1.695-.854.839-1.564,1.786-.643,1-1.354,1.946-.741.925-1.452,1.873-.613,1.019-1.322,1.965-.3,1.255-1.01,2.2-.823.865-1.534,1.812-.774.9-1.485,1.85-.857.84-1.568,1.788-.838.856-1.551,1.806-.5,1.112-1.209,2.062a.493.493,0,0,1-.84-.308c0-1.364.306-1.364.306-2.728s.028-1.365.028-2.729-.04-1.367-.04-2.734-.392-1.366-.392-2.734c0-.364-.526-.772-.795-.525-.857.788-.884.759-1.741,1.547s-.81.837-1.667,1.625-.8.849-1.658,1.637-.732.924-1.589,1.712-1.007.622-1.862,1.409-.721.935-1.577,1.724-1.083.544-1.94,1.333-.587,1.082-1.445,1.871-.986.649-1.843,1.439-.918.726-1.777,1.517-.778.879-1.637,1.669C330.694,102.618,330.311,102.263,330.631,101.858Z"
                              transform="translate(-330.511 -63.725)" fill="#ff7300" />
                      </g>
                      <g id="Group_2" data-name="Group 2" transform="translate(0 3.409)">
                          <path id="Path_2" data-name="Path 2"
                              d="M287.416,90.3h-6.635a2.746,2.746,0,0,1-2.051-.644,2.9,2.9,0,0,1-.614-2.052V71.286a2.843,2.843,0,0,1,.629-2.066,2.8,2.8,0,0,1,2.037-.63h7.035a16.441,16.441,0,0,1,2.7.193,5.745,5.745,0,0,1,2.044.74,5.384,5.384,0,0,1,1.363,1.163,5.124,5.124,0,0,1,.9,1.555,5.207,5.207,0,0,1,.311,1.8,4.992,4.992,0,0,1-3.258,4.769q4.28,1.363,4.28,5.3a5.954,5.954,0,0,1-.933,3.28,5.6,5.6,0,0,1-2.518,2.156,8.95,8.95,0,0,1-2.281.585A23.26,23.26,0,0,1,287.416,90.3Zm-4.9-18.41v5.614h4.028a8.086,8.086,0,0,0,2.54-.311,2.422,2.422,0,0,0,1.37-1.185,2.668,2.668,0,0,0,.371-1.392,2.161,2.161,0,0,0-1.17-2.185,8.938,8.938,0,0,0-3.569-.541Zm4.576,8.768h-4.576V87h4.724q4.458,0,4.458-3.214a2.62,2.62,0,0,0-1.155-2.385A6.474,6.474,0,0,0,287.09,80.661Z"
                              transform="translate(-278.115 -68.22)" fill="#036" />
                          <path id="Path_3" data-name="Path 3"
                              d="M307.92,72.3a2.134,2.134,0,0,1-1.444-.518,2.011,2.011,0,0,1,.016-2.881,2.065,2.065,0,0,1,1.428-.555,2.122,2.122,0,0,1,1.393.5,1.8,1.8,0,0,1,.607,1.466,1.852,1.852,0,0,1-.592,1.46A2.052,2.052,0,0,1,307.92,72.3Zm2,4.177V88.16A2.609,2.609,0,0,1,309.342,90a1.914,1.914,0,0,1-1.467.622,1.827,1.827,0,0,1-1.444-.637,2.691,2.691,0,0,1-.555-1.822V76.593a2.6,2.6,0,0,1,.555-1.808,1.866,1.866,0,0,1,1.444-.607,1.937,1.937,0,0,1,1.467.607A2.352,2.352,0,0,1,309.919,76.474Z"
                              transform="translate(-284.311 -68.165)" fill="#036" />
                          <path id="Path_4" data-name="Path 4"
                              d="M326.611,88.716l-3.569-5.866-2.192,2.073v3.214a2.467,2.467,0,0,1-.615,1.8,1.921,1.921,0,0,1-1.415.63,1.828,1.828,0,0,1-1.466-.622,2.753,2.753,0,0,1-.534-1.836V70.869a3.423,3.423,0,0,1,.519-2.052,1.73,1.73,0,0,1,1.481-.7,1.852,1.852,0,0,1,1.481.637,2.813,2.813,0,0,1,.548,1.881v9.8l4.547-4.769a11.181,11.181,0,0,1,1.289-1.215,1.78,1.78,0,0,1,1.081-.325,1.749,1.749,0,0,1,1.258.481,1.6,1.6,0,0,1,.5,1.207q0,.889-1.645,2.37l-2.147,1.97,4.147,6.517q.459.726.659,1.1a1.542,1.542,0,0,1,.2.718,2.12,2.12,0,0,1-.526,1.519,1.819,1.819,0,0,1-1.384.555,1.546,1.546,0,0,1-1.141-.4A9.654,9.654,0,0,1,326.611,88.716Z"
                              transform="translate(-286.754 -68.114)" fill="#036" />
                          <path id="Path_5" data-name="Path 5"
                              d="M348.424,85.059h-7.909a5.372,5.372,0,0,0,.555,2.429,3.72,3.72,0,0,0,3.414,2.118,4.822,4.822,0,0,0,1.326-.171,4.28,4.28,0,0,0,1.162-.533,8.847,8.847,0,0,0,1.037-.778q.473-.415,1.229-1.126a1.327,1.327,0,0,1,.889-.266,1.466,1.466,0,0,1,1.008.34,1.221,1.221,0,0,1,.385.963,2.635,2.635,0,0,1-.43,1.281,5.085,5.085,0,0,1-1.3,1.407,7.363,7.363,0,0,1-2.177,1.119,9.387,9.387,0,0,1-3.014.444,8.063,8.063,0,0,1-6.058-2.222,8.273,8.273,0,0,1-2.162-6.028,10.052,10.052,0,0,1,.533-3.325,7.341,7.341,0,0,1,1.555-2.629,6.736,6.736,0,0,1,2.518-1.681,9.041,9.041,0,0,1,3.318-.585,7.876,7.876,0,0,1,4.066,1,6.589,6.589,0,0,1,2.54,2.585,6.8,6.8,0,0,1,.844,3.228q0,1.525-.874,1.978A5.443,5.443,0,0,1,348.424,85.059Zm-7.909-2.3h7.331a4.919,4.919,0,0,0-1.118-3.1,3.349,3.349,0,0,0-2.555-1.029,3.236,3.236,0,0,0-2.481,1.044A5.2,5.2,0,0,0,340.515,82.763Z"
                              transform="translate(-291.121 -69.833)" fill="#036" />
                      </g>
                      <g id="Group_3" data-name="Group 3" transform="translate(70.448 3.409)">
                          <path id="Path_6" data-name="Path 6"
                              d="M389.526,81.369v4.162a4.371,4.371,0,0,1-.163,1.326,2.091,2.091,0,0,1-.6.9,5.641,5.641,0,0,1-1.118.77,17.55,17.55,0,0,1-3.792,1.555,15.269,15.269,0,0,1-3.969.489,12.926,12.926,0,0,1-4.561-.771,9.568,9.568,0,0,1-3.51-2.236,9.877,9.877,0,0,1-2.229-3.555,13.294,13.294,0,0,1-.778-4.665,13.618,13.618,0,0,1,.756-4.636,9.517,9.517,0,0,1,2.222-3.569,9.742,9.742,0,0,1,3.569-2.243,13.67,13.67,0,0,1,4.769-.778A11.84,11.84,0,0,1,384,68.7a8.544,8.544,0,0,1,2.74,1.474,6.582,6.582,0,0,1,1.585,1.881,3.814,3.814,0,0,1,.533,1.762,1.882,1.882,0,0,1-.614,1.415,2.059,2.059,0,0,1-1.474.585,1.991,1.991,0,0,1-.911-.221,2.072,2.072,0,0,1-.733-.622,17.42,17.42,0,0,0-1.377-1.926,4.441,4.441,0,0,0-1.518-1.1,5.8,5.8,0,0,0-2.436-.444,6.731,6.731,0,0,0-2.726.526,5.625,5.625,0,0,0-2.051,1.526,6.886,6.886,0,0,0-1.3,2.451,10.8,10.8,0,0,0-.451,3.214,8.806,8.806,0,0,0,1.756,5.88,6.083,6.083,0,0,0,4.895,2.059,9.981,9.981,0,0,0,2.866-.4,14.516,14.516,0,0,0,2.718-1.14V82.095h-3.406a3.731,3.731,0,0,1-1.859-.37,1.34,1.34,0,0,1-.63-1.259,1.544,1.544,0,0,1,.527-1.2,2.051,2.051,0,0,1,1.429-.474h4.992a6.362,6.362,0,0,1,1.555.163,1.753,1.753,0,0,1,1.029.726A2.959,2.959,0,0,1,389.526,81.369Z"
                              transform="translate(-368.806 -68.114)" fill="#036" />
                          <path id="Path_7" data-name="Path 7"
                              d="M415.374,84.075a9.556,9.556,0,0,1-.563,3.332,7.365,7.365,0,0,1-1.629,2.622,7.2,7.2,0,0,1-2.548,1.681,9,9,0,0,1-3.332.585A8.737,8.737,0,0,1,404,91.7a7.291,7.291,0,0,1-4.17-4.3,9.542,9.542,0,0,1-.555-3.325,9.647,9.647,0,0,1,.562-3.362,7.324,7.324,0,0,1,1.614-2.607A7.119,7.119,0,0,1,404,76.44a9.639,9.639,0,0,1,6.635.008,7.164,7.164,0,0,1,4.185,4.295A9.584,9.584,0,0,1,415.374,84.075Zm-4.058,0a6.067,6.067,0,0,0-1.089-3.851,3.535,3.535,0,0,0-2.925-1.377,3.628,3.628,0,0,0-2.088.614,3.9,3.9,0,0,0-1.392,1.815,8.24,8.24,0,0,0-.008,5.569,3.971,3.971,0,0,0,1.378,1.815,3.575,3.575,0,0,0,2.11.629,3.527,3.527,0,0,0,2.925-1.385A6.042,6.042,0,0,0,411.316,84.075Z"
                              transform="translate(-375.607 -69.842)" fill="#036" />
                      </g>
                  </g>
                  <g id="Group_5" data-name="Group 5" transform="translate(172.958 67.965)">
                      <path id="Path_8" data-name="Path 8"
                          d="M194.043,80.367a28.7,28.7,0,0,0-2.558-1.687,13.3,13.3,0,0,1-3.775-3.987,7.436,7.436,0,0,0-.556-.843c-1.118.959-1.627,2.633-2.416,3.85a17.134,17.134,0,0,1-5.269,5.325c-3.861,2.32-6.611,6.29-6.508,10.9a12.4,12.4,0,0,0,1.962,5.881,14.6,14.6,0,0,0,10.31,5.872,11.91,11.91,0,0,0,5.779-1.869c4.008-2.288,6.527-5.848,6.339-10.615a7.987,7.987,0,0,1-.172-1.95c.092-.428.083-.43.175-.858a20.2,20.2,0,0,1,1.887-4.829c.388-.766-1.971-2.1-2.411-2.606A17.366,17.366,0,0,0,194.043,80.367ZM189.8,96A5.445,5.445,0,0,1,182.46,98.4a5.613,5.613,0,0,1-1.9-7.637,5.345,5.345,0,0,1,7.372-2.038A5.176,5.176,0,0,1,189.8,96Z"
                          transform="translate(-172.958 -73.85)" fill="#036" />
                  </g>
                  <g id="Group_6" data-name="Group 6" transform="translate(187.759 49.792)">
                      <path id="Path_9" data-name="Path 9"
                          d="M219.9,71.124l-.019-.02a7.509,7.509,0,0,1-1.015-1.588,24.208,24.208,0,0,1-2.434-5.593c-.322-1.358-.049-2.784-.3-4.144a14.465,14.465,0,0,0-3.193-6.008,11.35,11.35,0,0,0-9.4-3.959c-2,.115-3.841,1.217-5.639,2.384a12.1,12.1,0,0,0-4.464,4.184,12.568,12.568,0,0,0-1.415,6.083,12.159,12.159,0,0,0,3.728,7.74c2.117,2.143,5.044,3.211,7.184,5.324a20.426,20.426,0,0,1,3.086,4.179,26.987,26.987,0,0,1,2.612,6.948c.346,1.3,1.5.007,1.9-.552.642-.9.278-1.075.7-2.094a16.476,16.476,0,0,1,1.531-2.918,2.708,2.708,0,0,1,1.3-1.429c1.992-1.244,2.581-.416,4.241-2.076a6.157,6.157,0,0,0,1.648-2.518c.243-.764,1.076-2.17.833-2.988C220.653,71.618,220.208,71.438,219.9,71.124Zm-12.445-4.289a5.808,5.808,0,0,1-7.877-1.549c-1.653-2.548-.562-5.877,1.985-7.53a5.372,5.372,0,0,1,7.55,1.343A5.665,5.665,0,0,1,207.458,66.834Z"
                          transform="translate(-192.011 -49.792)" fill="#ff7300" />
                  </g>
                  <g id="Group_7" data-name="Group 7" transform="translate(204.372 50.358)">
                      <path id="Path_10" data-name="Path 10"
                          d="M235.985,94.261a11.985,11.985,0,0,0,1.1-3.875c.325-1.553.066-3.144.395-4.686a22.88,22.88,0,0,1,2.06-5.419A20.966,20.966,0,0,1,242.9,75.6c3.468-3.822,9.294-6.752,9.278-12.484-.006-2.307-.057-5.154-1.264-7.185a12.372,12.372,0,0,0-4.535-4.347,11.972,11.972,0,0,0-6.1-1.058,15.031,15.031,0,0,0-6.267,1.6,9.491,9.491,0,0,0-2.843,2.093c-.913,1.007-1.016,2.126-1.68,3.247-1.269,2.143-1.137,4.628-1.583,7a22.211,22.211,0,0,1-2.157,6.2,19.371,19.371,0,0,1-4.193,5.712c-1.864,1.63-4.655,2.3-5.882,4.583-2.111,3.932-2.534,9.165-.17,13.085a10.438,10.438,0,0,0,9.993,5.842,12.337,12.337,0,0,0,10.486-5.617Zm-.21-34.51a5.338,5.338,0,0,1,7.253-2.306,5.468,5.468,0,1,1-5.425,9.494A5.078,5.078,0,0,1,235.775,59.751Zm-14.7,25.631a5.339,5.339,0,0,1,7.253-2.306A5.468,5.468,0,1,1,222.9,92.57,5.078,5.078,0,0,1,221.07,85.382Z"
                          transform="translate(-213.905 -50.521)" fill="#036" />
                  </g>
              </g>
            </symbol>
        </defs>
    </svg>

    <svg xmlns="http://www.w3.org/2000/svg" xmlns:xlink="http://www.w3.org/1999/xlink" width="35" height="35" viewBox="0 0 35 35">
  <defs>
    <clipPath id="clip-path">
      <path id="Shape" d="M16,16H0V14c0-.82.52-2,3-3a14.848,14.848,0,0,1,5-1,14.848,14.848,0,0,1,5,1c2.478.993,3,2.178,3,3v2ZM8,8a4,4,0,1,1,4-4A4.005,4.005,0,0,1,8,8Z" transform="translate(0 0)" fill="#036"/>
    </clipPath>
  </defs>
  <g id="Group_169" data-name="Group 169" transform="translate(-1501 62)">
    <path id="Shape-2" data-name="Shape" d="M0,0H21V21H0Z" transform="translate(1508 -55)" fill="none"/>
    <path id="Shape-3" data-name="Shape" d="M14,14H0V12.25c0-.717.455-1.754,2.624-2.623A12.992,12.992,0,0,1,7,8.75a12.992,12.992,0,0,1,4.376.877C13.545,10.5,14,11.533,14,12.25V14ZM7,7a3.5,3.5,0,1,1,3.5-3.5A3.5,3.5,0,0,1,7,7Z" transform="translate(1511.5 -51.5)" fill="none"/>
    <g id="Mask_Group_160" data-name="Mask Group 160" transform="translate(1510.5 -52.5)" clip-path="url(#clip-path)">
      <g id="Icon_Fill" data-name="Icon Fill" transform="translate(-4 -4)">
        <rect id="BG" width="24" height="24" fill="#036"/>
      </g>
    </g>
    <g id="Ellipse_9" data-name="Ellipse 9" transform="translate(1501 -62)" fill="none" stroke="#036" stroke-width="1">
      <circle cx="17.5" cy="17.5" r="17.5" stroke="none"/>
      <circle cx="17.5" cy="17.5" r="17" fill="none"/>
    </g>
  </g>
</svg>

