<svg xmlns="http://www.w3.org/2000/svg" xmlns:xlink="http://www.w3.org/1999/xlink" width="35" height="35" viewBox="0 0 35 35">
  <defs>
    <clipPath id="clip-path">
      <path id="Shape" d="M16,16H0V14c0-.82.52-2,3-3a14.848,14.848,0,0,1,5-1,14.848,14.848,0,0,1,5,1c2.478.993,3,2.178,3,3v2ZM8,8a4,4,0,1,1,4-4A4.005,4.005,0,0,1,8,8Z" transform="translate(0 0)" fill="#ff7300"/>
    </clipPath>
  </defs>
  <g id="Group_574" data-name="Group 574" transform="translate(-1482 55)">
    <g id="Group_572" data-name="Group 572" transform="translate(-19 7)">
      <path id="Shape-2" data-name="Shape" d="M0,0H21V21H0Z" transform="translate(1508 -55)" fill="none"/>
      <path id="Shape-3" data-name="Shape" d="M14,14H0V12.25c0-.717.455-1.754,2.624-2.623A12.992,12.992,0,0,1,7,8.75a12.992,12.992,0,0,1,4.376.877C13.545,10.5,14,11.533,14,12.25V14ZM7,7a3.5,3.5,0,1,1,3.5-3.5A3.5,3.5,0,0,1,7,7Z" transform="translate(1511.5 -51.5)" fill="none"/>
      <g id="Mask_Group_160" data-name="Mask Group 160" transform="translate(1510.5 -52.5)" clip-path="url(#clip-path)">
        <g id="Icon_Fill" data-name="Icon Fill" transform="translate(-4 -4)">
          <rect id="BG" width="24" height="24" fill="#ff7300"/>
        </g>
      </g>
      <g id="Path_656" data-name="Path 656" transform="translate(1501 -62)" fill="none">
        <path d="M17.5,0A17.5,17.5,0,1,1,0,17.5,17.5,17.5,0,0,1,17.5,0Z" stroke="none"/>
        <path d="M 17.5 1 C 13.09268951416016 1 8.949180603027344 2.716300964355469 5.832740783691406 5.832740783691406 C 2.716300964355469 8.949180603027344 1 13.09268951416016 1 17.5 C 1 21.90731048583984 2.716300964355469 26.05081939697266 5.832740783691406 29.16725921630859 C 8.949180603027344 32.28369903564453 13.09268951416016 34 17.5 34 C 21.90731048583984 34 26.05081939697266 32.28369903564453 29.16725921630859 29.16725921630859 C 32.28369903564453 26.05081939697266 34 21.90731048583984 34 17.5 C 34 13.09268951416016 32.28369903564453 8.949180603027344 29.16725921630859 5.832740783691406 C 26.05081939697266 2.716300964355469 21.90731048583984 1 17.5 1 M 17.5 0 C 27.16497993469238 0 35 7.835020065307617 35 17.5 C 35 27.16497993469238 27.16497993469238 35 17.5 35 C 7.835020065307617 35 0 27.16497993469238 0 17.5 C 0 7.835020065307617 7.835020065307617 0 17.5 0 Z" stroke="none" fill="#ff7300"/>
      </g>
    </g>
  </g>
</svg>
