<svg xmlns="http://www.w3.org/2000/svg" xmlns:xlink="http://www.w3.org/1999/xlink" width="35" height="35" viewBox="0 0 35 35">
  <defs>
    <style>
      .cls-1 {
        fill: #036;
      }

      .cls-2, .cls-4 {
        fill: none;
      }

      .cls-3 {
        clip-path: url(#clip-path);
      }

      .cls-4 {
        stroke: #036;
      }

      .cls-5 {
        stroke: none;
      }
    </style>
    <clipPath id="clip-path">
      <path id="Shape" class="cls-1" d="M16,16H0V14c0-.82.52-2,3-3a14.848,14.848,0,0,1,5-1,14.848,14.848,0,0,1,5,1c2.478.993,3,2.178,3,3v2ZM8,8a4,4,0,1,1,4-4A4.005,4.005,0,0,1,8,8Z" transform="translate(0 0)"/>
    </clipPath>
  </defs>
  <g id="Group_169" data-name="Group 169" transform="translate(-1501 62)">
    <path id="Shape-2" data-name="Shape" class="cls-2" d="M0,0H21V21H0Z" transform="translate(1508 -55)"/>
    <path id="Shape-3" data-name="Shape" class="cls-2" d="M14,14H0V12.25c0-.717.455-1.754,2.624-2.623A12.992,12.992,0,0,1,7,8.75a12.992,12.992,0,0,1,4.376.877C13.545,10.5,14,11.533,14,12.25V14ZM7,7a3.5,3.5,0,1,1,3.5-3.5A3.5,3.5,0,0,1,7,7Z" transform="translate(1511.5 -51.5)"/>
    <g id="Mask_Group_160" data-name="Mask Group 160" class="cls-3" transform="translate(1510.5 -52.5)">
      <g id="Icon_Fill" data-name="Icon Fill" transform="translate(-4 -4)">
        <rect id="BG" class="cls-1" width="24" height="24"/>
      </g>
    </g>
    <g id="Ellipse_9" data-name="Ellipse 9" class="cls-4" transform="translate(1501 -62)">
      <circle class="cls-5" cx="17.5" cy="17.5" r="17.5"/>
      <circle class="cls-2" cx="17.5" cy="17.5" r="17"/>
    </g>
  </g>
</svg>
