<svg xmlns="http://www.w3.org/2000/svg" width="140.993" height="180" viewBox="0 0 140.993 180">
  <g id="Group_170" data-name="Group 170" transform="translate(-152 -4670.988)">
    <g id="圖層_2" data-name="圖層 2" transform="translate(152 4670.988)">
      <g id="圖層_1" data-name="圖層 1" transform="translate(0 0)">
        <rect id="Rectangle_46" data-name="Rectangle 46" width="1.124" height="12.713" transform="matrix(0.779, -0.627, 0.627, 0.779, 70.174, 153.402)" fill="#331832"/>
        <path id="Path_404" data-name="Path 404" d="M83.335,193s-3.63,6.9-2.618,9.076,5.2,7.191,1.99,7.114c-1.843-.042-6.123-5.041-7.477-6.283s-3.177-1.829-3.351-3.665c-.188-2.018,8.378-9.467,8.378-9.467A13.37,13.37,0,0,0,82,191.613C83.587,192.981,83.335,193,83.335,193Z" transform="translate(-20.366 -53.03)" fill="#91a4e5"/>
        <path id="Path_405" data-name="Path 405" d="M115.29,141.087c-.7,5.48,3.714,4.573-5.062,15.108-7.868,9.453-16.651,18.152-22.18,21.035-2.751,1.445-6.367-3.135-6.981-5.173-1.759-5.732,5.739-13.46,11.526-23.646,5-8.8,9.648-12.35,9.648-12.35Z" transform="translate(-22.562 -38.061)" fill="#1d5873"/>
        <path id="Path_406" data-name="Path 406" d="M136.477,105.709c-23.248-5.355-26.914-7.589-27.647-16.9-.943-12.057,2.541-20.079,2.716-20.477,0,0,1.152-1.082,7.044.859,5.25,1.731,6,.363,6,.363a50.008,50.008,0,0,0-.81,15.485c1.054,11.5,9.844,11.331,21.733,12.979C145.511,97.987,139.947,106.484,136.477,105.709Z" transform="translate(-30.297 -19.068)" fill="#ffb17d"/>
        <path id="Path_407" data-name="Path 407" d="M75.482,199.325l-.216-.049L38.592,187.89a1.34,1.34,0,0,1-.579-2.2l23.877-25.517a1.354,1.354,0,0,1,1.983,1.843l-22.418,23.94,34.614,10.751a1.347,1.347,0,0,1-.586,2.618Z" transform="translate(-10.474 -43.966)" fill="#764678"/>
        <path id="Path_408" data-name="Path 408" d="M21.831,212.578c-7.945-1.1-14.661-4.992-18.452-10.682A20.867,20.867,0,0,1,.83,184.512l1.082.286L.83,184.512C5.1,168.4,14.737,161.11,31.151,161.571a21.994,21.994,0,0,1,16.644,7.735c5.215,6.158,7.547,15.45,6.283,24.861-.97,6.981-4.95,12.371-11.512,15.625C36.792,212.641,29.44,213.632,21.831,212.578Zm11.924-48.542a23.56,23.56,0,0,0-2.667-.216c-15.408-.44-24.072,6.123-28.094,21.266A18.843,18.843,0,0,0,5.25,200.661c3.428,5.145,9.579,8.685,16.888,9.7,12.944,1.787,27.758-2.611,29.678-16.5,1.2-8.657-1-17.51-5.739-23.109a19.094,19.094,0,0,0-12.322-6.716Z" transform="translate(0.002 -44.512)" fill="#331832"/>
        <path id="Path_409" data-name="Path 409" d="M29.383,194.672c1.25-4.706,4.091-6.179,8.015-6.074,4.713.14,6.528,4.713,5.99,8.6s-4.608,5.327-8.5,4.789S28.35,198.463,29.383,194.672Z" transform="translate(-8.8 -53.475)" fill="#331832"/>
        <path id="Path_410" data-name="Path 410" d="M31.962,189.815,14.39,172.871l.154-.161,17.572,16.944Z" transform="translate(-4.343 -48.9)" fill="#331832"/>
        <path id="Path_411" data-name="Path 411" d="M29.51,188.364l-.182-.07L5.71,179.735l.077-.209,23.437,8.5-3.959-23,.216-.035Z" transform="translate(-1.722 -46.587)" fill="#331832"/>
        <path id="Path_412" data-name="Path 412" d="M39.09,189.394,55.12,170.6l.175.14L39.9,188.794l21.287-9.425.091.2Z" transform="translate(-11.012 -48.268)" fill="#331832"/>
        <path id="Path_413" data-name="Path 413" d="M39.37,187.953l7.6-24.163.209.063-7.5,23.849,25.2-2.255.021.223Z" transform="translate(-11.067 -46.231)" fill="#331832"/>
        <path id="Path_414" data-name="Path 414" d="M58.352,216.122,39.02,197.9l25.72,6.975-.063.216-24.854-6.744,18.682,17.614Z" transform="translate(-10.968 -55.484)" fill="#331832"/>
        <path id="Path_415" data-name="Path 415" d="M31.546,222.37l-.216-.049L37.09,197.6l7.051,23.59-.209.063-6.821-22.781Z" transform="translate(-8.873 -55.394)" fill="#331832"/>
        <path id="Path_416" data-name="Path 416" d="M13.9,217.838l-.182-.14,14.836-19.3L4.368,210.067l-.1-.2L29.306,197.78Z" transform="translate(-1.288 -55.448)" fill="#331832"/>
        <rect id="Rectangle_47" data-name="Rectangle 47" width="0.223" height="26.209" transform="translate(1.436 141.727) rotate(-89.73)" fill="#331832"/>
        <path id="Path_417" data-name="Path 417" d="M34.61,196.486a3.523,3.523,0,0,1,3.917-2.967c2.3.07,3.191,2.3,2.925,4.189s-2.248,2.6-4.147,2.339S34.156,198.343,34.61,196.486Z" transform="translate(-9.804 -55.016)" fill="#ee8062"/>
        <path id="Path_418" data-name="Path 418" d="M141.081,229.088c-7.945-1.1-14.661-4.992-18.452-10.682a20.878,20.878,0,0,1-2.548-17.391h0c4.273-16.106,13.907-23.395,30.321-22.934a21.968,21.968,0,0,1,16.637,7.736c5.215,6.158,7.554,15.45,6.283,24.861-.963,6.981-4.943,12.364-11.506,15.625C156.035,229.151,148.684,230.135,141.081,229.088Zm-18.85-27.493a18.7,18.7,0,0,0,2.255,15.569c3.421,5.152,9.579,8.685,16.888,9.7,12.944,1.794,27.758-2.6,29.678-16.49,1.2-8.657-1-17.51-5.739-23.109a19.516,19.516,0,0,0-14.989-6.94c-15.408-.433-24.072,6.123-28.094,21.273Z" transform="translate(-32.667 -49.496)" fill="#331832"/>
        <path id="Path_419" data-name="Path 419" d="M148.627,211.174c1.25-4.706,4.1-6.179,8.022-6.067,4.713.133,6.528,4.712,5.99,8.6s-4.608,5.327-8.5,4.789S147.622,214.972,148.627,211.174Z" transform="translate(-41.47 -57.658)" fill="#331832"/>
        <path id="Path_420" data-name="Path 420" d="M151.209,206.325,133.63,189.381l.161-.161,17.572,16.937Z" transform="translate(-37.747 -53.575)" fill="#331832"/>
        <path id="Path_421" data-name="Path 421" d="M148.76,204.871l-.182-.07-23.618-8.559.077-.209,23.437,8.5-3.965-23,.223-.042Z" transform="translate(-35.169 -50.531)" fill="#331832"/>
        <path id="Path_422" data-name="Path 422" d="M158.34,205.9l16.03-18.8.168.147L159.15,205.3l21.287-9.425.091.2Z" transform="translate(-44.467 -52.224)" fill="#331832"/>
        <path id="Path_423" data-name="Path 423" d="M158.62,204.46l7.6-24.17.209.07-7.5,23.849,25.2-2.255.021.223Z" transform="translate(-44.552 -50.169)" fill="#331832"/>
        <path id="Path_424" data-name="Path 424" d="M177.592,232.632,158.26,214.41l25.72,6.974-.056.216-24.854-6.744,18.675,17.607Z" transform="translate(-44.443 -60.468)" fill="#331832"/>
        <path id="Path_425" data-name="Path 425" d="M150.8,238.88l-.216-.049,5.753-24.721,7.058,23.59-.216.063-6.814-22.781Z" transform="translate(-42.125 -60.377)" fill="#331832"/>
        <path id="Path_426" data-name="Path 426" d="M133.141,234.348l-.175-.14L147.8,214.9l-24.184,11.673-.1-.2,25.036-12.085Z" transform="translate(-34.736 -60.432)" fill="#331832"/>
        <rect id="Rectangle_48" data-name="Rectangle 48" width="0.223" height="26.209" transform="translate(87.217 154.152) rotate(-89.74)" fill="#331832"/>
        <path id="Path_427" data-name="Path 427" d="M153.855,213a3.515,3.515,0,0,1,3.917-2.967c2.3.07,3.191,2.3,2.925,4.189s-2.248,2.6-4.154,2.339S153.366,214.846,153.855,213Z" transform="translate(-43.676 -59.145)" fill="#ee8062"/>
        <path id="Path_428" data-name="Path 428" d="M154.521,189.809a2.234,2.234,0,0,1-1.913-1.934l-7.386-57.946a2.242,2.242,0,0,1,4.447-.566l7.386,57.946a2.248,2.248,0,0,1-1.941,2.513,2.409,2.409,0,0,1-.593-.014Z" transform="translate(-41.148 -34.205)" fill="#ee8062"/>
        <path id="Path_429" data-name="Path 429" d="M82.514,189.668a2.234,2.234,0,0,1-1.794-1.4L61.626,137.432a2.248,2.248,0,0,1,4.189-1.578l19.087,50.8a2.241,2.241,0,0,1-1.306,2.89,2.29,2.29,0,0,1-1.082.119Z" transform="translate(-17.325 -37.314)" fill="#ee8062"/>
        <path id="Path_430" data-name="Path 430" d="M80.455,205.5c.866-6.856,5.341-7.065,9.572-6.479a7.729,7.729,0,1,1-2.094,15.31C83.673,213.75,79.875,210.113,80.455,205.5Z" transform="translate(-22.726 -55.759)" fill="#331832"/>
        <path id="Path_431" data-name="Path 431" d="M84.114,182.614a2.248,2.248,0,0,1-.936-4.091l31.033-20.693L80.176,168.749a2.248,2.248,0,0,1-1.4-4.273L128.1,148.663a2.241,2.241,0,0,1,1.927,4L85.671,182.258a2.276,2.276,0,0,1-1.557.356Z" transform="translate(-21.172 -41.727)" fill="#ee8062"/>
        <path id="Path_432" data-name="Path 432" d="M76.008,142.744a31.417,31.417,0,0,0-10.982-3.721c-6.283-.88-12.518-3.791-12.567-.656-.14,4.887,8.28,3.533,10.738,6.863C66.1,149.188,78.9,147.75,76.008,142.744Z" transform="translate(-14.762 -38.875)" fill="#331832"/>
        <path id="Path_433" data-name="Path 433" d="M118.4,211.27s.565,3.491,3.093,4.189,9.593.642,7.3,3.267c-1.306,1.508-8.434,1.606-10.409,1.871s-3.721,1.4-5.376.258c-1.815-1.243-1.173-8.713-1.173-8.713a8.028,8.028,0,0,0,3.358.412A6.353,6.353,0,0,0,118.4,211.27Z" transform="translate(-31.565 -59.52)" fill="#91a4e5"/>
        <path id="Path_434" data-name="Path 434" d="M112.174,134.242c-4.189-6.9-10.71-12.287-19.416-16.009a77.746,77.746,0,0,0-21.936-5.383c-13.6-1.5-19.646-3.491-19.646-3.491C38.736,136.043,79.41,132.343,89.324,144.5,93.631,149.8,118.667,144.966,112.174,134.242Z" transform="translate(-13.191 -30.663)" fill="#366f8f"/>
        <path id="Path_435" data-name="Path 435" d="M106.658,62.9S101.366,51,94.021,48.242C70.982,39.7,62.6,55.112,56.175,73.145c-5.515,15.534-10.828,28.687-8.489,29.567,27.549,10.4,49.324.468,47.293-6.933C93.344,81.7,99.907,79.023,99.865,74.234c0-5.816,1.878-7.212,3.407-8.126a16.687,16.687,0,0,0,3.386-3.2Z" transform="translate(-12.821 -12.637)" fill="#91a4e5"/>
        <path id="Path_436" data-name="Path 436" d="M90.637,66.35c-.342,1.2-4.419,1.1-9.118-.223s-8.231-3.379-7.889-4.58,4.419-1.1,9.118.223S91,65.149,90.637,66.35Z" transform="translate(-20.8 -17.256)" fill="#331832"/>
        <path id="Path_437" data-name="Path 437" d="M100.007,105.9c-23.248-5.355-26.844-12.86-27.57-22.173-.963-12.057,2.52-20.044,2.695-20.477,0,0,1.152-1.082,7.044.859,5.264,1.731,5.39,3.065,5.39,3.065s-1.026,3.8-.2,12.8c1.054,11.492,14.424,15.206,26.886,19.122C114.249,99.079,103.456,106.7,100.007,105.9Z" transform="translate(-20.059 -17.59)" fill="#ffb17d"/>
        <path id="Path_438" data-name="Path 438" d="M97.977,65.912h0a.084.084,0,0,1-.049-.1,22.044,22.044,0,0,0,1.4-6.7.07.07,0,1,1,.133-.028,22.063,22.063,0,0,1-1.4,6.758.077.077,0,0,1-.084.077Z" transform="translate(-27.887 -16.768)" fill="#331832"/>
        <path id="Path_439" data-name="Path 439" d="M79.542,104.374a1.452,1.452,0,0,1-.754-.419,4.056,4.056,0,0,1-.936-1.452c-.524-1.278-.433-2.485.2-2.744s1.536.545,2.053,1.829h0a4.189,4.189,0,0,1,.342,1.7,1.082,1.082,0,0,1-.538,1.047A.642.642,0,0,1,79.542,104.374Zm-1.18-4.329a.363.363,0,0,0-.2,0c-.384.154-.489,1.145,0,2.318a3.861,3.861,0,0,0,.859,1.333c.293.272.572.391.768.307s.314-.356.335-.754a3.8,3.8,0,0,0-.314-1.557h0c-.419-.977-1.04-1.592-1.452-1.648Z" transform="translate(-22.06 -28.364)" fill="#e8835c"/>
        <path id="Path_440" data-name="Path 440" d="M143.9,131.022s5.138-1.634,4.887-3.491.286-3.149-.461-3.365-10.256.775-10.256.775l-12.713,1.11-.468,4.433,14.731-2.011,1.152,1.885,3.128.649Z" transform="translate(-35.147 -35.286)" fill="#331832"/>
        <path id="Path_441" data-name="Path 441" d="M157.583,127.359l10.647-2.269-.929-3.1-11.331,2.457,1.613,2.911Z" transform="translate(-43.752 -34.695)" fill="#331832"/>
        <path id="Path_442" data-name="Path 442" d="M169,123.659a3.044,3.044,0,1,1,3.449,2.96A3.232,3.232,0,0,1,169,123.659Z" transform="translate(-47.685 -34.279)" fill="#331832"/>
        <path id="Path_443" data-name="Path 443" d="M115.7,129.758a3.929,3.929,0,1,1,4.315,2.841A3.67,3.67,0,0,1,115.7,129.758Z" transform="translate(-32.846 -35.765)" fill="#331832"/>
        <path id="Path_444" data-name="Path 444" d="M126,114.7s7.519,1.319,9.872,5.117,2.485,10.43.524,8.378a24.5,24.5,0,0,1-3.372-4.706s3.107,6.6,1.061,6.674-4.1-3.707-4.1-3.707,2.541,6.4.586,5.85-3.728-5.453-3.728-5.453,2.094,6.542-.182,5.844-2.325-6.982-4.37-6.919-10.193-.3-11.1-5.962Z" transform="translate(-31.237 -32.461)" fill="#ffb17d"/>
        <path id="Path_445" data-name="Path 445" d="M140.889,125.228s-.7-2.094-1.9-2.506l.091-.321c1.4.433,2.094,2.639,2.094,2.73Z" transform="translate(-39.57 -34.843)" fill="#e8835c"/>
        <path id="Path_446" data-name="Path 446" d="M135.585,126.566a5.585,5.585,0,0,0-2.325-3.03l.154-.286a5.83,5.83,0,0,1,2.492,3.225Z" transform="translate(-37.931 -35.079)" fill="#e8835c"/>
        <path id="Path_447" data-name="Path 447" d="M131.316,128.1s-.789-2.527-2.136-2.793l.07-.321c1.536.335,2.353,2.939,2.388,3.051Z" transform="translate(-36.773 -35.576)" fill="#e8835c"/>
        <path id="Path_448" data-name="Path 448" d="M156.665,110.94s6.709,1.173,8.8,4.559,2.213,9.3.468,7.477a26.174,26.174,0,0,1-3.33-4.768s3.093,6.451,1.271,6.521-4.461-5.585-4.461-5.585,3.072,7.98,1.326,7.484-4.035-6.563-4.035-6.563,2.562,7.533.552,6.912-2.094-6.241-3.9-6.172-6.926-1.012-7.735-6.06Z" transform="translate(-40.628 -31.422)" fill="#ffb17d"/>
        <path id="Path_449" data-name="Path 449" d="M169.013,120.32s-.6-1.9-1.7-2.234l.091-.286c1.25.384,1.864,2.353,1.892,2.437Z" transform="translate(-47.175 -33.537)" fill="#e8835c"/>
        <path id="Path_450" data-name="Path 450" d="M164.274,121.493a5.013,5.013,0,0,0-2.094-2.695l.14-.258a5.145,5.145,0,0,1,2.213,2.876Z" transform="translate(-45.626 -33.742)" fill="#e8835c"/>
        <path id="Path_451" data-name="Path 451" d="M160.476,122.877s-.7-2.255-1.906-2.52l.063-.286c1.4.3,2.094,2.618,2.094,2.723Z" transform="translate(-44.537 -34.179)" fill="#e8835c"/>
        <path id="Path_452" data-name="Path 452" d="M136.963,118.084c-1.494-3.868-21.454-8.964-21.643-9.013l.077-.321c.831.209,20.33,5.194,21.887,9.216Z" transform="translate(-32.493 -30.883)" fill="#e8835c"/>
        <path id="Path_453" data-name="Path 453" d="M121.886,32.069s5.515-1.508,3.924-6.981c-1.4-4.726-1.1-6.981-4.538-8.957-3.819-2.206-4.042-.817-9.488-2.744-3.442-1.222-5.885.642-7.065,3.728s-4.112,14.305,5.369,16.134S121.886,32.069,121.886,32.069Z" transform="translate(-29.106 -3.921)" fill="#ee8062"/>
        <path id="Path_454" data-name="Path 454" d="M105.9,43.254a.321.321,0,0,1-.133-.056.272.272,0,0,1-.035-.384c1.4-1.634,2.576-1.445,2.625-1.438a.272.272,0,0,1,.216.314.279.279,0,0,1-.307.223h0c-.056,0-.97-.112-2.094,1.25A.286.286,0,0,1,105.9,43.254Z" transform="translate(-30.074 -12.481)" fill="#ee8062"/>
        <path id="Path_455" data-name="Path 455" d="M128.9,16.158a.251.251,0,0,1-.119-.049,8.914,8.914,0,0,0-6.465-1.717.273.273,0,0,1-.126-.531,9.523,9.523,0,0,1,6.9,1.8.273.273,0,0,1-.189.5Z" transform="translate(-34.647 -4.152)" fill="#ee8062"/>
        <path id="Path_456" data-name="Path 456" d="M105.4,41.621c1.536.14,1.976-.4,2.793-1.508l2.583-3.449.747-1,4.405-5.885-1.794,6.611-1.075,3.965-.307,1.131a2.793,2.793,0,0,0,1.131,3.107s-1.117,2.094-4.8.761A6.507,6.507,0,0,1,105.4,41.621Z" transform="translate(-29.889 -8.984)" fill="#ffb17d"/>
        <path id="Path_457" data-name="Path 457" d="M113.114,39.089V39.2c-.216,2.2,2.094,4.238,2.094,4.238l.154-.545,1.075-3.965a4.312,4.312,0,0,0-2.611-.7.936.936,0,0,0-.712.859Z" transform="translate(-32.183 -11.521)" fill="#e49462"/>
        <circle id="Ellipse_12" data-name="Ellipse 12" cx="8.057" cy="8.057" r="8.057" transform="translate(75.789 26.517) rotate(-63.14)" fill="#ffb17d"/>
        <path id="Path_458" data-name="Path 458" d="M122.973,39.69a16,16,0,0,1-4.81-1.69,2.45,2.45,0,0,0,2,3.065C121.71,41.414,122.973,39.69,122.973,39.69Z" transform="translate(-33.575 -11.465)" fill="#e8633e"/>
        <path id="Path_459" data-name="Path 459" d="M123.01,39.674a3.281,3.281,0,0,1-2.094.126,5.914,5.914,0,0,1-2.716-1.85A24.107,24.107,0,0,0,123.01,39.674Z" transform="translate(-33.611 -11.45)" fill="#fff"/>
        <path id="Path_460" data-name="Path 460" d="M120.328,31.141a.147.147,0,0,0,.126-.077.168.168,0,0,0-.049-.23,1.829,1.829,0,0,0-2.227.084.168.168,0,0,0-.042.237.2.2,0,0,0,.237,0,2.848,2.848,0,0,1,1.85-.07A.14.14,0,0,0,120.328,31.141Z" transform="translate(-33.621 -9.2)" fill="#080435"/>
        <path id="Path_461" data-name="Path 461" d="M118.914,33.417a.656.656,0,0,0,.363.824c.286.063.586-.209.7-.6a.656.656,0,0,0-.363-.824C119.3,32.761,119,33.026,118.914,33.417Z" transform="translate(-33.859 -9.898)" fill="#080435"/>
        <path id="Path_462" data-name="Path 462" d="M128.632,33.749a.161.161,0,0,0,.147,0,.168.168,0,0,0,.042-.23,1.822,1.822,0,0,0-2.094-.775.161.161,0,0,0-.119.2c0,.091.1.126.2.126a2.793,2.793,0,0,1,1.731.642.265.265,0,0,0,.091.035Z" transform="translate(-36.042 -9.853)" fill="#080435"/>
        <path id="Path_463" data-name="Path 463" d="M126.373,35.231a.559.559,0,1,0,.518-.413A.559.559,0,0,0,126.373,35.231Z" transform="translate(-35.928 -10.505)" fill="#080435"/>
        <path id="Path_464" data-name="Path 464" d="M121.841,20.437s6.283-1.313,5.7,7.065c0,0,.7,2.381-2.094.852s-3.491.307-5.159-1.222-1.3-1.459-2.869-1.131.37-2.032-2.96-5.585C112.527,18.405,117.023,18.51,121.841,20.437Z" transform="translate(-32.276 -5.715)" fill="#ee8062"/>
        <path id="Path_465" data-name="Path 465" d="M113.484,23.689s-3.491,1.166-3.491,2.834-.147,2.625-1.208,3.093.7,1.9-.824,2.925-4.538-4.887-4.384-6.283C104.639,17.287,116.507,20.862,113.484,23.689Z" transform="translate(-29.372 -6.195)" fill="#ee8062"/>
        <path id="Path_466" data-name="Path 466" d="M111.078,30.607a1.821,1.821,0,0,0,2.541.649,2.032,2.032,0,0,0,.084-2.737,1.823,1.823,0,0,0-2.541-.656A2.039,2.039,0,0,0,111.078,30.607Z" transform="translate(-31.464 -8.316)" fill="#ffb17d"/>
        <path id="Path_467" data-name="Path 467" d="M73.064,1.094a3.03,3.03,0,0,1,.642.782c.7,1.18,3.281,4.824,8.943,3.491,6.723-1.557,14.172-2.73,16.972-.8s2.094,3.686-1.2,3.379-6.674-.963-8.476,3.121-5.788,8.908-10.717,8.21-1.4-3.253-3.693-4.412-5.027,2.932-9.362-.621S66.962-4.121,73.064,1.094Z" transform="translate(-18 0.007)" fill="#ee8062"/>
        <path id="Path_468" data-name="Path 468" d="M69.3,15.219h0a3.791,3.791,0,0,1-2.318-2.164c-.7-1.592-.419-3.8.7-6.074a3.072,3.072,0,0,1,2.185-1.92c1.564-.286,3.609.789,6.081,3.184,3.749,3.623,5.8,2.492,8.915.775a19.813,19.813,0,0,1,6.283-2.492c4.719-.873,7.491-.768,8.238.314a1.2,1.2,0,0,1,0,1.25.16.16,0,1,1-.272-.168.866.866,0,0,0,0-.9c-.377-.545-1.906-1.292-7.917-.182A19.464,19.464,0,0,0,85,9.305c-3.163,1.7-5.411,2.946-9.327-.81C73.3,6.205,71.293,5.13,69.862,5.4a2.793,2.793,0,0,0-1.955,1.7,7.461,7.461,0,0,0-.656,5.816A3.491,3.491,0,0,0,69.345,14.9a.161.161,0,0,1,.1.2A.154.154,0,0,1,69.3,15.219Z" transform="translate(-18.626 -1.509)" fill="#fff"/>
        <path id="Path_469" data-name="Path 469" d="M85.63,22.3a2.094,2.094,0,0,1-.412-.1c-1.885-.621-2.039-1.592-2.157-2.374s-.182-1.208-1.522-1.333a.161.161,0,0,1-.14-.175.154.154,0,0,1,.168-.147h.23c1.4.188,1.473.866,1.585,1.578s.237,1.557,1.934,2.094c3.337,1.1,7.84-6.981,7.889-7.079a.168.168,0,0,1,.216-.063.161.161,0,0,1,.063.216C93.3,15.31,89.128,22.78,85.63,22.3Z" transform="translate(-23.064 -4.428)" fill="#fff"/>
        <path id="Path_470" data-name="Path 470" d="M119.914,13.038h0a.272.272,0,0,1-.188-.335,4,4,0,0,1,2.793-2.716.273.273,0,1,1,.126.531,3.491,3.491,0,0,0-2.395,2.332.279.279,0,0,1-.335.188Z" transform="translate(-34.068 -3.007)" fill="#ee8062"/>
        <path id="Path_471" data-name="Path 471" d="M106.319,155.847s-4.189,40.255,3.2,40.144,9.774-.077,11.3-5.913c1.843-7.072,9.97-26.711,9.4-41.5C129.979,142.345,106.319,155.847,106.319,155.847Z" transform="translate(-29.565 -40.1)" fill="#366f8f"/>
        <path id="Path_472" data-name="Path 472" d="M119.3,225.933a1,1,0,0,0,.775-1.18h0a1,1,0,0,0-1.18-.782l-9.935,2.039a1.075,1.075,0,0,0-.831,1.264h0a.936.936,0,0,0,1.1.7Z" transform="translate(-30.634 -63.348)" fill="#764678"/>
        <path id="Path_473" data-name="Path 473" d="M60.955,161.834a1.906,1.906,0,0,1-1.313-.447,37.428,37.428,0,0,0-7.98-4.719c-6.283-2.793-12.308-3.449-17.873-2.046a1.955,1.955,0,1,1-.956-3.784c6.374-1.613,13.46-.817,20.512,2.3a40.492,40.492,0,0,1,8.79,5.243,1.948,1.948,0,0,1-1.18,3.449Z" transform="translate(-8.746 -42.567)" fill="#ee8062"/>
      </g>
    </g>
  </g>
</svg>
