<svg id="圖層_2" data-name="圖層 2" xmlns="http://www.w3.org/2000/svg" width="157.961" height="180" viewBox="0 0 157.961 180">
  <g id="圖層_1" data-name="圖層 1" transform="translate(0 0)">
    <path id="Path_340" data-name="Path 340" d="M78.593,205.761a1.217,1.217,0,0,0,1.713-.252h0a1.217,1.217,0,0,0-.252-1.713L70.07,196.37a1.3,1.3,0,0,0-1.826.276h0a1.136,1.136,0,0,0,.235,1.623Z" transform="translate(-16.903 -50.207)" fill="#331832"/>
    <path id="Path_341" data-name="Path 341" d="M84.426,185.569S79.9,193.994,81.114,196.7s6.306,8.871,2.37,8.749c-2.264-.073-7.459-6.25-9.107-7.792s-3.88-2.281-4.058-4.537C70.1,190.682,80.733,181.6,80.733,181.6a15.852,15.852,0,0,0,2.118,2.281C84.734,185.561,84.426,185.569,84.426,185.569Z" transform="translate(-17.535 -47.474)" fill="#366f8f"/>
    <path id="Path_342" data-name="Path 342" d="M122.5,131.466c-.925,6.72,4.5,5.682-6.371,18.481-9.74,11.5-20.616,22.06-27.433,25.559-3.385,1.745-7.776-3.912-8.514-6.42-2.1-7.053,7.183-16.46,14.407-28.878,6.233-10.746,11.972-15.048,11.972-15.048Z" transform="translate(-21.019 -33.027)" fill="#cc6651"/>
    <path id="Path_343" data-name="Path 343" d="M134.972,93.667c-29.154-2.6-33.983-4.7-36.443-15.892-3.141-14.463-.284-24.82-.146-25.339,0,0,1.217-1.5,8.709-.138,6.672,1.217,7.053,2.8,7.053,2.8s-.6,4.789,1.915,15.584c3.247,13.8,13.863,12.11,28.594,12.11C144.655,82.791,139.314,94.056,134.972,93.667Z" transform="translate(-25.803 -13.422)" fill="#ffb17d"/>
    <path id="Path_344" data-name="Path 344" d="M87.054,199.663a1.621,1.621,0,0,1-.276,0l-46.458-7.67a1.649,1.649,0,0,1-1.079-2.573L63.971,154.4a1.648,1.648,0,1,1,2.695,1.9l-23.2,32.871L87.289,196.4a1.629,1.629,0,1,1-.268,3.247Z" transform="translate(-10.409 -42.219)" fill="#764678"/>
    <path id="Path_345" data-name="Path 345" d="M30.469,223.33c-9.829,0-18.668-3.6-24.211-9.87-4.919-5.56-7-12.718-6.022-20.7h0c2.484-20.291,12.986-30.777,32.985-32.969a26.918,26.918,0,0,1,21.517,6.591c7.37,6.615,11.817,17.507,11.817,29.162,0,8.62-3.928,15.859-11.363,20.916C48.7,220.9,39.892,223.33,30.469,223.33Zm-28.846-30.4,1.364.17c-.877,7.175.974,13.587,5.357,18.546,5.032,5.681,13.108,8.928,22.15,8.928,16.038,0,33.277-7.832,33.277-25.031,0-10.722-4.164-21.1-10.86-27.109-5.3-4.756-11.826-6.745-19.382-5.909-18.8,2.062-28.221,11.485-30.558,30.566Z" transform="translate(-0.002 -43.33)" fill="#331832"/>
    <path id="Path_346" data-name="Path 346" d="M30.256,197.315c.722-5.925,3.928-8.189,8.717-8.717,5.755-.633,8.725,4.618,8.725,9.439s-4.675,7.248-9.545,7.248S29.671,202.1,30.256,197.315Z" transform="translate(-5.689 -48.782)" fill="#331832"/>
    <rect id="Rectangle_38" data-name="Rectangle 38" width="0.277" height="30.004" transform="translate(9.162 132.237) rotate(-53.931)" fill="#331832"/>
    <path id="Path_347" data-name="Path 347" d="M34.182,192.656l-.235-.057L3.81,186.171l.057-.268,29.909,6.38-8.685-27.271.26-.081Z" transform="translate(-0.719 -41.795)" fill="#331832"/>
    <path id="Path_348" data-name="Path 348" d="M40.35,192.274,56.664,166.74l.227.146-15.665,24.52,24.284-15.032.146.235Z" transform="translate(-10.245 -42.112)" fill="#331832"/>
    <path id="Path_349" data-name="Path 349" d="M40.77,191.968l5.17-30.648.268.049-5.1,30.242,30.234-6.988.057.276Z" transform="translate(-10.454 -41.068)" fill="#331832"/>
    <path id="Path_350" data-name="Path 350" d="M66.879,217.5,40.33,198.6l32.417,4.156-.032.268-31.329-4.01,25.656,18.254Z" transform="translate(-10.376 -50.676)" fill="#331832"/>
    <path id="Path_351" data-name="Path 351" d="M37.646,229.239l-.276-.024,2.833-31,12.548,27.474-.252.114-12.11-26.533Z" transform="translate(-9.331 -50.603)" fill="#331832"/>
    <path id="Path_352" data-name="Path 352" d="M19.535,225.283l-.243-.138L34.071,199.2,6.654,217.442l-.154-.227,28.391-18.9Z" transform="translate(-1.226 -50.623)" fill="#331832"/>
    <rect id="Rectangle_39" data-name="Rectangle 39" width="32.149" height="0.276" transform="translate(1.383 152.227) rotate(-7.57)" fill="#331832"/>
    <path id="Path_353" data-name="Path 353" d="M35.733,198.105c.357-2.9,1.924-4,4.261-4.261,2.808-.308,4.261,2.256,4.261,4.61S41.958,202,39.6,202,35.449,200.459,35.733,198.105Z" transform="translate(-8.822 -49.775)" fill="#ee8062"/>
    <path id="Path_354" data-name="Path 354" d="M157.489,223.33c-9.837,0-18.668-3.6-24.211-9.87-4.919-5.56-7-12.718-6.022-20.7,2.484-20.291,12.986-30.777,32.985-32.969a26.917,26.917,0,0,1,21.517,6.591c7.37,6.615,11.777,17.507,11.777,29.162,0,8.62-3.928,15.859-11.363,20.916C175.7,220.9,166.912,223.33,157.489,223.33Zm6.323-60.97a30.033,30.033,0,0,0-3.247.187c-18.8,2.062-28.221,11.485-30.558,30.566h0c-.877,7.175.974,13.587,5.357,18.546,5.032,5.681,13.1,8.928,22.15,8.928,16.038,0,33.277-7.832,33.277-25.031,0-10.722-4.164-21.1-10.86-27.109a23.416,23.416,0,0,0-16.119-6.087Z" transform="translate(-35.572 -43.33)" fill="#331832"/>
    <path id="Path_355" data-name="Path 355" d="M157.276,197.315c.722-5.925,3.928-8.189,8.717-8.717,5.755-.633,8.725,4.618,8.725,9.439s-4.7,7.248-9.521,7.248S156.691,202.1,157.276,197.315Z" transform="translate(-41.26 -48.782)" fill="#331832"/>
    <rect id="Rectangle_40" data-name="Rectangle 40" width="0.276" height="29.941" transform="translate(103.015 132.116) rotate(-53.93)" fill="#331832"/>
    <path id="Path_356" data-name="Path 356" d="M161.2,192.656l-.235-.057-30.136-6.428.057-.268,29.9,6.38-8.676-27.271.26-.081Z" transform="translate(-33.526 -41.795)" fill="#331832"/>
    <path id="Path_357" data-name="Path 357" d="M167.37,192.274l16.314-25.534.227.146-15.665,24.52,24.284-15.032.146.235Z" transform="translate(-43.173 -42.112)" fill="#331832"/>
    <path id="Path_358" data-name="Path 358" d="M167.78,191.968l5.178-30.648.268.049-5.105,30.242,30.242-6.988.057.276Z" transform="translate(-43.25 -41.068)" fill="#331832"/>
    <path id="Path_359" data-name="Path 359" d="M193.9,217.5,167.34,198.6l32.425,4.156-.032.268-31.337-4.01,25.664,18.254Z" transform="translate(-43.167 -50.676)" fill="#331832"/>
    <path id="Path_360" data-name="Path 360" d="M164.666,229.239l-.276-.024,2.833-31,12.548,27.474-.252.114L167.4,199.265Z" transform="translate(-42.612 -50.603)" fill="#331832"/>
    <path id="Path_361" data-name="Path 361" d="M146.555,225.283l-.243-.138,14.78-25.948-27.417,18.246-.154-.227,28.391-18.9Z" transform="translate(-34.088 -50.623)" fill="#331832"/>
    <rect id="Rectangle_41" data-name="Rectangle 41" width="32.149" height="0.276" transform="translate(95.636 152.224) rotate(-7.57)" fill="#331832"/>
    <path id="Path_362" data-name="Path 362" d="M162.753,198.105c.357-2.9,1.924-4,4.261-4.261,2.808-.308,4.261,2.256,4.261,4.61s-2.3,3.547-4.651,3.547S162.469,200.459,162.753,198.105Z" transform="translate(-40.202 -49.775)" fill="#ee8062"/>
    <path id="Path_363" data-name="Path 363" d="M163.01,183.707a2.76,2.76,0,0,1-2.654-2.037L141.631,112.5a2.751,2.751,0,1,1,5.308-1.437l18.733,69.168a2.76,2.76,0,0,1-2.662,3.474Z" transform="translate(-35.858 -30.418)" fill="#764678"/>
    <path id="Path_364" data-name="Path 364" d="M89.5,192.428a2.768,2.768,0,0,1-2.435-1.445L55.343,132.473a2.767,2.767,0,0,1,4.87-2.63l31.743,58.519a2.76,2.76,0,0,1-1.1,3.734,2.849,2.849,0,0,1-1.347.333Z" transform="translate(-14.292 -37.451)" fill="#764678"/>
    <path id="Path_365" data-name="Path 365" d="M85.18,201.368c-.1-8.482,5.3-9.488,10.551-9.488a9.488,9.488,0,0,1,0,18.968C90.48,210.848,85.253,207.1,85.18,201.368Z" transform="translate(-21.419 -49.41)" fill="#331832"/>
    <path id="Path_366" data-name="Path 366" d="M100.207,219.161l.828-.26-2-10.852-.828.268,2,10.844Z" transform="translate(-24.066 -52.456)" fill="#331832"/>
    <path id="Path_367" data-name="Path 367" d="M106.46,223.248a1.226,1.226,0,0,0,1.5-.877h0a1.242,1.242,0,0,0-.868-1.5l-12.029-3.182a1.307,1.307,0,0,0-1.623.925h0a1.153,1.153,0,0,0,.812,1.4Z" transform="translate(-23.29 -54.262)" fill="#331832"/>
    <path id="Path_368" data-name="Path 368" d="M87.922,179.7a2.751,2.751,0,0,1-1.826-4.8l34.227-30.364L80.8,163.521a2.755,2.755,0,0,1-2.386-4.967l57.269-27.515a2.751,2.751,0,0,1,3.011,4.537l-48.95,43.439a2.76,2.76,0,0,1-1.826.69Z" transform="translate(-21.276 -34.389)" fill="#764678"/>
    <path id="Path_369" data-name="Path 369" d="M75.176,135.942a38.78,38.78,0,0,0-13.968-2.678c-7.824,0-15.843-2.5-15.421,1.331.657,5.99,10.649,2.9,14.2,6.493C64.219,145.447,79.534,141.535,75.176,135.942Z" transform="translate(-11.725 -32.754)" fill="#331832"/>
    <path id="Path_370" data-name="Path 370" d="M108.254,207.277s-1.234,4.2,1.217,6.282,10.292,5.755,6.379,7.459c-2.248.982-10.194-2.654-12.532-3.4s-4.87-.422-6.087-2.54c-1.355-2.329,3.247-10.267,3.247-10.267a9.74,9.74,0,0,0,3.506,2.216,7.784,7.784,0,0,0,4.269.252Z" transform="translate(-24.394 -51.846)" fill="#366f8f"/>
    <path id="Path_371" data-name="Path 371" d="M102.6,189c13.2-27.377,26.33-52.927,16.631-64.891-6.233-7.678-15.072-13.124-26.289-16.176a95.312,95.312,0,0,0-27.555-2.857c-16.777.463-24.447-.909-24.447-.909-10.632,34.511,38.147,23.172,52.253,36.272,6.136,5.681-7.54,17.678-6.623,45.874C86.734,191.145,100.386,193.589,102.6,189Z" transform="translate(-11.741 -32.889)" fill="#ee8062"/>
    <path id="Path_372" data-name="Path 372" d="M108.476,51.684s-2.492-11.363-15.584-16.46h0A30.23,30.23,0,0,0,85.839,32.2c-54.088-11.55-54.218,72.374-47.132,73.981,35.217,8,69.241-11.079,65.524-19.723C99.873,69.63,99.516,64.979,102,59.671c.812-1.729,2.557-1.972,4.789-4.464a7.581,7.581,0,0,0,1.688-3.523Z" transform="translate(-10.152 -5.856)" fill="#68a0be"/>
    <ellipse id="Ellipse_11" data-name="Ellipse 11" cx="2.776" cy="10.835" rx="2.776" ry="10.835" transform="matrix(0.137, -0.991, 0.991, 0.137, 42.153, 41.723)" fill="#331832"/>
    <path id="Path_373" data-name="Path 373" d="M97.006,100.087C67.787,97.481,62.195,88.967,59.736,77.775c-3.174-14.463-.292-24.82-.146-25.339,0,0,1.217-1.5,8.709-.138,6.672,1.217,7.053,2.8,7.053,2.8s-.6,4.789,1.915,15.584c3.247,13.8,20.08,16.046,35.883,18.716C113.15,89.4,101.316,100.468,97.006,100.087Z" transform="translate(-15.774 -13.585)" fill="#ffb17d"/>
    <path id="Path_374" data-name="Path 374" d="M83.3,53.254h0a.1.1,0,0,1-.073-.114c0-.049,1.144-4.87.56-8.368a.1.1,0,0,1,.081-.114.089.089,0,0,1,.114.081c.584,3.523-.552,8.392-.56,8.441a.1.1,0,0,1-.122.073Z" transform="translate(-20.342 -11.013)" fill="#331832"/>
    <path id="Path_375" data-name="Path 375" d="M69.633,95.718c-.722,0-1.688-.812-2.386-1.98a5.211,5.211,0,0,1-.7-2,1.1,1.1,0,0,1,1.9-1.1,5.13,5.13,0,0,1,1.388,1.623h0c.812,1.477.95,2.954.219,3.376A.812.812,0,0,1,69.633,95.718Zm-2.167-5.081a.438.438,0,0,0-.235.057c-.227.122-.325.479-.276.974A4.643,4.643,0,0,0,67.6,93.51c.812,1.339,1.81,1.98,2.256,1.729s.406-1.485-.365-2.825h0a4.821,4.821,0,0,0-1.266-1.477A1.388,1.388,0,0,0,67.466,90.637Z" transform="translate(-16.314 -22.16)" fill="#e8835c"/>
    <path id="Path_376" data-name="Path 376" d="M143.869,113.4s5.974-2.857,5.357-5.048-.187-3.88-1.128-4.01-12.329,2.67-12.329,2.67l-15.259,3.482.179,5.462,17.564-4.919,2.07,2.435,3.547-.049Z" transform="translate(-30.788 -25.836)" fill="#331832"/>
    <path id="Path_377" data-name="Path 377" d="M154.533,108.157l12.556-4.553-1.656-3.6-13.343,4.886,2.443,3.271Z" transform="translate(-37.947 -24.652)" fill="#331832"/>
    <path id="Path_378" data-name="Path 378" d="M165.57,102.414a3.959,3.959,0,0,1,2.435-5.008,4.2,4.2,0,1,1-2.435,5.008Z" transform="translate(-40.854 -23.941)" fill="#331832"/>
    <path id="Path_379" data-name="Path 379" d="M110.829,116.791c-.617-2.216.942-4.594,3.482-5.308s5.105.511,5.681,2.727a4.534,4.534,0,0,1-3.474,5.3c-2.54.706-5.105-.5-5.73-2.719Z" transform="translate(-27.383 -27.442)" fill="#331832"/>
    <path id="Path_380" data-name="Path 380" d="M121.912,98.14s9.358.333,12.856,4.561,4.764,12.256,2.045,10.1a36.33,36.33,0,0,1-5.438-5.876s5.43,8.214,2.962,8.652-5.584-3.88-5.584-3.88,4.139,7.418,1.672,7.078-5.681-5.949-5.681-5.949,3.863,7.548,1.006,7.086-4-8.116-6.493-7.678-12.434,1.347-14.488-5.373Z" transform="translate(-27.012 -24.647)" fill="#ffb17d"/>
    <path id="Path_381" data-name="Path 381" d="M136.685,108.345s-1.169-2.435-2.735-2.727l.065-.4c1.778.284,2.987,2.841,3.036,2.954Z" transform="translate(-32.836 -25.777)" fill="#e8835c"/>
    <path id="Path_382" data-name="Path 382" d="M131.416,110.568a6.866,6.866,0,0,0-3.336-3.247l.138-.381a7.11,7.11,0,0,1,3.563,3.506Z" transform="translate(-31.424 -26.214)" fill="#e8835c"/>
    <path id="Path_383" data-name="Path 383" d="M127.146,112.774s-1.388-2.938-3.076-3.068V109.3c1.924.146,3.352,3.174,3.409,3.3Z" transform="translate(-30.427 -26.788)" fill="#e8835c"/>
    <path id="Path_384" data-name="Path 384" d="M152.743,90s8.344.3,11.46,4.058,4.253,10.925,1.826,9a32.393,32.393,0,0,1-4.87-5.235s4.87,7.3,2.638,7.719-6.355-6.022-6.355-6.022,5.073,9.172,2.873,8.871-6.006-7.3-6.006-7.3,4.375,8.725,1.826,8.311-3.563-7.232-5.771-6.842S141.794,102.5,140,96.493Z" transform="translate(-35.673 -22.526)" fill="#ffb17d"/>
    <path id="Path_385" data-name="Path 385" d="M165.325,99.1s-1.047-2.208-2.435-2.435l.057-.357c1.623.26,2.67,2.54,2.711,2.638Z" transform="translate(-39.912 -23.584)" fill="#e8835c"/>
    <path id="Path_386" data-name="Path 386" d="M160.621,101.073a6.087,6.087,0,0,0-2.971-2.93l.122-.333a6.371,6.371,0,0,1,3.182,3.117Z" transform="translate(-38.657 -23.965)" fill="#e8835c"/>
    <path id="Path_387" data-name="Path 387" d="M156.815,103.05s-1.234-2.622-2.735-2.735V99.95c1.713.13,2.987,2.833,3.036,2.946Z" transform="translate(-37.767 -24.485)" fill="#e8835c"/>
    <path id="Path_388" data-name="Path 388" d="M96.433,25.648l1.98-4.423L99,19.934l3.393-7.564-.633,7.865-.381,4.716-.122,1.493a5.219,5.219,0,0,0,.812,3.2c.26.39,2.289,1.859,0,2.565-2.889.877-7.8-1.623-9.456-4.229C92.577,27.978,95.792,27.077,96.433,25.648Z" transform="translate(-22.948 -2.327)" fill="#ffb17d"/>
    <path id="Path_389" data-name="Path 389" d="M112.137,9.67a10.487,10.487,0,0,1-.528,4.294c-.812,2.329-2.5-3.839-2.5-3.839Z" transform="translate(-26.746 -1.819)" fill="#5c305d"/>
    <path id="Path_390" data-name="Path 390" d="M109.172,13.895c0-4.691-3.247-8.465-7.118-8.425s-7.037,3.863-6.964,8.547,3.247,8.465,7.118,8.425S109.212,18.586,109.172,13.895Z" transform="translate(-23.691 -1.028)" fill="#ffb17d"/>
    <path id="Path_391" data-name="Path 391" d="M94.07,10.551l3.433.057a2.492,2.492,0,0,0,1.964-.868c.812-1.006,1.721-1.461,4.87-.958,3.977.641,6.907-1.42,7.6-3.458a2.414,2.414,0,0,0-3.3-3C106.5,3.1,107.681.7,105.765.194c-3.547-.933-4.578,1.769-7.5,1.315-3.863-.592-11.16,1.5-8.7,8.725Z" transform="translate(-22.521 0.003)" fill="#331832"/>
    <path id="Path_392" data-name="Path 392" d="M103.849,15.476a.14.14,0,0,0-.032-.268,1.55,1.55,0,0,0-1.745.73.146.146,0,0,0,0,.195c.065.049.138,0,.195-.041a2.484,2.484,0,0,1,1.453-.609.114.114,0,0,0,.13-.008Z" transform="translate(-24.971 -2.852)" fill="#080435"/>
    <path id="Path_393" data-name="Path 393" d="M103.238,17.543c.049.333.284.576.528.544s.406-.341.357-.674-.284-.584-.528-.544A.555.555,0,0,0,103.238,17.543Z" transform="translate(-25.229 -3.174)" fill="#080435"/>
    <path id="Path_394" data-name="Path 394" d="M110.463,15.686a.114.114,0,0,0,.089-.065.179.179,0,0,0,0-.195,1.006,1.006,0,0,0-1.469,0,.17.17,0,0,0,0,.195.105.105,0,0,0,.154,0,1.477,1.477,0,0,1,1.217,0,.106.106,0,0,0,.008.065Z" transform="translate(-26.675 -2.843)" fill="#080435"/>
    <path id="Path_395" data-name="Path 395" d="M108.991,17.3a.56.56,0,0,0,.284.706c.243.057.5-.162.584-.5a.552.552,0,0,0-.284-.706A.537.537,0,0,0,108.991,17.3Z" transform="translate(-26.63 -3.161)" fill="#080435"/>
    <path id="Path_396" data-name="Path 396" d="M89.68,12.506s1.721,5.324,4.992,6.1c0,0-2.216-4.172,3.717-5.828C98.389,12.822,93.308,11.337,89.68,12.506Z" transform="translate(-22.162 -2.268)" fill="#5c305d"/>
    <path id="Path_397" data-name="Path 397" d="M94.862,16.166a1.461,1.461,0,0,0,2.053-.081,1.542,1.542,0,0,0-2.37-1.948A1.453,1.453,0,0,0,94.862,16.166Z" transform="translate(-23.102 -2.576)" fill="#ffb17d"/>
    <path id="Path_398" data-name="Path 398" d="M99.7,13s-.966,4.18-.2,5.089,6.412,1.94,9.188,1.242h0a5.56,5.56,0,0,1-5.259,4.967,7.954,7.954,0,0,1-2.711-.341h0c-1.818-.552-3.531-1.542-4.058-3.36-.17-.552.9-3.693.9-3.693a3.685,3.685,0,0,0-.5-2.987A5.5,5.5,0,0,1,99.7,13Z" transform="translate(-24.001 -2.446)" fill="#5c305d"/>
    <path id="Path_399" data-name="Path 399" d="M108.46,22.373a14.366,14.366,0,0,1-4.61-.2,2.216,2.216,0,0,0,2.557,2.1C107.827,24.191,108.46,22.373,108.46,22.373Z" transform="translate(-25.512 -4.173)" fill="#fff"/>
    <path id="Path_400" data-name="Path 400" d="M112.508,2.143A1.079,1.079,0,0,1,111.42,1.08h.195a.877.877,0,0,0,.917.86Z" transform="translate(-27.239 -0.201)" fill="#331832"/>
    <path id="Path_401" data-name="Path 401" d="M109.44,8.523V8.434a13.262,13.262,0,0,0,2.289-.641c1.063-.414,2.378-1.153,2.605-2.281a1.428,1.428,0,0,0-.162-1.291c-.373-.414-1.169-.333-1.859-.26H112V3.9h.308c.722-.081,1.534-.17,1.948.284a1.534,1.534,0,0,1,.187,1.38c-.195.925-1.112,1.737-2.67,2.346a12.8,12.8,0,0,1-2.329.609Z" transform="translate(-26.903 -0.72)" fill="#fff"/>
    <path id="Path_402" data-name="Path 402" d="M100.519,2.665a9.05,9.05,0,0,1-2.289-.308V2.267c4.058,1.063,6.371-1.023,6.388-1.047l.073.073A6.493,6.493,0,0,1,100.519,2.665Z" transform="translate(-24.195 -0.227)" fill="#fff"/>
    <path id="Path_403" data-name="Path 403" d="M137.353,102.448c-2.435-4.44-17.759-5.755-17.913-5.763V96.28a75.035,75.035,0,0,1,8.116,1.217c5.633,1.2,9.042,2.792,10.129,4.748Z" transform="translate(-29.958 -23.675)" fill="#e8835c"/>
  </g>
</svg>
