<svg id="圖層_1" data-name="圖層 1" xmlns="http://www.w3.org/2000/svg" viewBox="0 0 1943.76 339.57"><defs><style>.cls-1{fill:#ba56f3;}.cls-2{fill:none;}</style></defs><path class="cls-1" d="M0,487v-.64l-.08-.05V616h1920V503.46l-.8-.15c.56,1.69-2.07,1.8-1.12,3.69" transform="translate(23.84 -276.37)"/><path class="cls-2" d="M1894.16,319.92c-1-1.89,1.68-2,1.12-3.7-3.14-.59-15.57-2.89-36.11-6.1-21.93-3.42-57.74-8.58-103.84-13.75-51.82-5.8-105.81-10.43-160.47-13.75-68.33-4.15-137.9-6.25-206.78-6.25-22.76,0-46.3.43-70,1.28-22.52.81-45.87,2-69.4,3.59-43.33,2.91-88.11,7.07-136.9,12.72-90.34,10.47-178.93,24.33-264.6,37.73h0c-53.61,8.39-104.26,16.31-154.82,23.38-27.17,3.8-51.71,7-75,9.74-26.09,3.08-50.06,5.55-73.28,7.56-25.49,1.86-50.85,3.26-75.39,4.17-23.45.87-46.78,1.31-69.35,1.31-36.28,0-71.79-1.14-105.55-3.38-30.69-2-60.62-5-89-8.91-47.73-6.52-91.88-15.61-131.23-27-15.46-4.48-30.21-9.34-43.83-14.43C18.86,320,8.65,315.79-.58,311.51c-15-6.94-22.48-11.73-23.26-12.23v.64" transform="translate(23.84 -276.37)"/></svg>