<svg xmlns="http://www.w3.org/2000/svg" width="328" height="127.096" viewBox="0 0 328 127.096">
  <g id="圖層_2" data-name="圖層 2" transform="translate(-0.002 0.013)">
    <g id="_Layer_" data-name="&lt;Layer&gt;" transform="translate(0.002 -0.013)">
      <path id="Path_100" data-name="Path 100" d="M242.041,3.061C177.813-6.16,127.585,5.614,89.371,35.74,72.011,49.409,42.023,61.474,29.2,68.663,21.721,72.855,15.747,86.882,21.1,97.982c-4.2,1.976-7.976-2.482-14.108.766-12.546,6.638-9.548,30.279,20.639,28.211.48,0,.96-.071,1.46-.112.95-.092,1.92-.2,2.916-.342a50.81,50.81,0,0,1,5.693-.454h2.287c9.533.25,34.593,2.4,33.771-12.076a1.326,1.326,0,0,0-.026-.317c59.838,4.238,185.032,19.01,254.28-6.428V38.757S306.214,12.293,242.041,3.061Z" transform="translate(-0.017 0.009)" fill="#fff"/>
      <path id="Path_101" data-name="Path 101" d="M346.218,107.22V38.753s-21.782-26.465-85.955-35.7S145.807,5.61,107.593,35.736C90.233,49.4,60.245,61.47,47.419,68.659s-21.261,43.35,24.473,43.983S267.795,136.028,346.218,107.22Z" transform="translate(-18.239 0.013)" fill="#7bb3a9" opacity="0.35"/>
      <path id="Path_102" data-name="Path 102" d="M469.763,108.033c.618-.036,1.231-.087,1.864-.143,1.21-.112,2.446-.255,3.717-.434a64.216,64.216,0,0,1,7.256-.582c.633,0,1.256-.026,1.894,0h1.021c12.147.322,44.075,3.064,43.023-15.384C527.2,67.833,503.519,77.851,501.988,68.2c-1.818-11.4-24-24.029-33.358-5.8-9.053,17.667-14.108,3.83-25.173,9.7C427.491,80.567,431.3,110.667,469.763,108.033Z" transform="translate(-212.691 -26.033)" fill="#6da49a"/>
      <path id="Path_103" data-name="Path 103" d="M554.24,127s24.366,2.88,23.83,5.259-23.595-3.993-23.595-3.993Z" transform="translate(-271.245 -62.147)" fill="#7cbdb1"/>
      <path id="Path_104" data-name="Path 104" d="M533.44,122.925s26.214-18.351,27.241-17.549-25.9,18.892-25.9,18.892Z" transform="translate(-261.065 -51.551)" fill="#7cbdb1"/>
      <path id="Path_105" data-name="Path 105" d="M528.61,122.456c.633,0,1.256-.026,1.894,0,.4-1.481,1.256-4.6,2.277-8.394l.751-2.778c3.007-11.269,6.878-26.327,6.066-26.235-.557.061-2.737,7.261-5.024,15.4-.163.551-.322,1.113-.475,1.675-1.021,3.681-2.042,7.475-2.961,10.82v.082C529.963,117.315,529.029,120.858,528.61,122.456Z" transform="translate(-258.701 -41.616)" fill="#7cbdb1"/>
      <path id="Path_106" data-name="Path 106" d="M526.4,97.258c.378.592.766,1.174,1.133,1.731,1.767,2.691,3.237,4.825,3.237,4.825l.945-.853s-1.659-2.834-3.646-6.025c-.378-.613-.766-1.236-1.159-1.853-2.451-3.865-4.994-7.572-5.351-6.924S523.841,93.29,526.4,97.258Z" transform="translate(-255.234 -43.102)" fill="#7cbdb1"/>
      <path id="Path_107" data-name="Path 107" d="M480.054,133.433s-20.005-10.845-21.2-9.13,20.179,9.773,20.179,9.773Z" transform="translate(-224.539 -60.737)" fill="#7cbdb1"/>
      <path id="Path_108" data-name="Path 108" d="M493.983,126.934c.143.511.286.97.429,1.445,1.246,4.156,2.374,7.751,2.676,8.68.618-.036,1.231-.087,1.864-.143-.454-1.557-2.752-9.364-4.861-15.727-.2-.6-.4-1.2-.587-1.777-1.328-3.891-2.487-6.873-2.931-6.883C489.852,112.51,491.961,120.138,493.983,126.934Z" transform="translate(-240.015 -55.065)" fill="#7cbdb1"/>
      <path id="Path_109" data-name="Path 109" d="M471.66,119.815s-.352-9.615-1.307-9.87-.271,9.191-.271,9.191Z" transform="translate(-229.942 -53.798)" fill="#7cbdb1"/>
      <path id="Path_110" data-name="Path 110" d="M495.822,119.96s8.45-10.61,7.976-11.535-8.537,9.742-8.537,9.742Z" transform="translate(-242.38 -53.029)" fill="#7cbdb1"/>
      <path id="Path_111" data-name="Path 111" d="M216.389,186.239s7.429-7.659,4.871-12-6.868,9.359-6.868,9.359,2.236-16.217-2.4-16.5,0,16.5,0,16.5-1.716-3.911-3.39-4.156-1.2,3.319,1.8,6.8Z" transform="translate(-101.622 -81.768)" fill="#cfd8ac"/>
      <path id="Path_112" data-name="Path 112" d="M218.294,183.9c.306-.322,7.526-7.833,4.907-12.3a1.56,1.56,0,0,0-1.476-.965c-1.92.22-4.024,5.254-5.106,8.262.357-3.763.771-11.187-1.277-13.684a2.185,2.185,0,0,0-1.593-.868,1.66,1.66,0,0,0-1.476.643c-1.848,2.277-.189,10.391.725,14.185-.679-1.108-1.644-2.344-2.624-2.487a.96.96,0,0,0-1.047.511c-.6,1.1.214,3.906,2.625,6.709l.363-.317c-2.364-2.757-3.013-5.351-2.553-6.163a.475.475,0,0,1,.551-.24c1.266.179,2.747,2.956,3.207,4.008l.454-.158c-.036-.128-3.574-12.974-1.317-15.727a1.215,1.215,0,0,1,1.072-.465,1.705,1.705,0,0,1,1.251.694c2.589,3.161.939,15.4.919,15.527l.47.107c.853-2.722,3.5-9.819,5.423-10.038.368-.041.694.2,1.021.73,2.436,4.151-4.764,11.637-4.841,11.713Z" transform="translate(-102.352 -80.423)" fill="#444092"/>
      <path id="Path_113" data-name="Path 113" d="M398.053,166.139s7.45-7.649,4.9-11.984-6.868,9.359-6.868,9.359,2.236-16.212-2.395-16.5,0,16.5,0,16.5-1.721-3.911-3.4-4.156-1.2,3.319,1.8,6.8Z" transform="translate(-190.54 -71.941)" fill="#cfd8ac"/>
      <path id="Path_114" data-name="Path 114" d="M399.934,163.784c.306-.317,7.526-7.833,4.907-12.3a1.56,1.56,0,0,0-1.476-.965c-1.92.22-4.024,5.254-5.106,8.262.363-3.763.771-11.187-1.277-13.684a2.185,2.185,0,0,0-1.593-.868,1.659,1.659,0,0,0-1.476.643c-1.848,2.277-.189,10.391.725,14.19-.679-1.113-1.644-2.349-2.625-2.492a.96.96,0,0,0-1.047.511c-.6,1.1.214,3.906,2.625,6.709l.368-.317c-2.369-2.752-3.013-5.346-2.553-6.163a.48.48,0,0,1,.551-.24c1.266.184,2.747,2.956,3.212,4.013l.449-.163c-.036-.128-3.574-12.974-1.317-15.727a1.215,1.215,0,0,1,1.072-.465,1.705,1.705,0,0,1,1.251.694c2.589,3.161.94,15.4.919,15.527l.47.107c.853-2.716,3.5-9.819,5.423-10.038.368-.041.694.2,1.021.73,2.436,4.151-4.764,11.637-4.841,11.713Z" transform="translate(-191.246 -70.577)" fill="#444092"/>
      <path id="Path_115" data-name="Path 115" d="M156.019,148.269s7.429-7.659,4.871-12-6.868,9.359-6.868,9.359,2.236-16.217-2.4-16.5,0,16.5,0,16.5-1.716-3.911-3.39-4.156-1.2,3.319,1.8,6.8Z" transform="translate(-72.077 -63.186)" fill="#cfd8ac"/>
      <path id="Path_116" data-name="Path 116" d="M157.939,145.934c.306-.322,7.526-7.833,4.907-12.3a1.562,1.562,0,0,0-1.481-.965c-1.915.22-4.018,5.254-5.106,8.262.357-3.763.771-11.192-1.277-13.684a2.17,2.17,0,0,0-1.6-.868,1.665,1.665,0,0,0-1.471.643c-1.848,2.277-.189,10.391.725,14.185-.679-1.108-1.644-2.344-2.63-2.487a.955.955,0,0,0-1.021.511c-.6,1.1.214,3.906,2.624,6.709l.352-.357c-2.369-2.757-3.013-5.351-2.553-6.163a.475.475,0,0,1,.551-.24c1.266.179,2.747,2.956,3.207,4.008l.454-.158c-.036-.128-3.574-12.974-1.317-15.727a1.2,1.2,0,0,1,1.072-.465,1.705,1.705,0,0,1,1.251.694c2.589,3.156.94,15.4.919,15.527l.47.107c.853-2.722,3.5-9.819,5.423-10.038.363-.041.694.194,1.021.73,2.43,4.146-4.769,11.637-4.84,11.713Z" transform="translate(-72.822 -61.842)" fill="#444092"/>
      <path id="Path_117" data-name="Path 117" d="M27.6,207.386c.48,0,.96-.071,1.46-.112.95-.092,1.92-.2,2.916-.342a50.806,50.806,0,0,1,5.693-.454h2.287c9.533.25,34.593,2.4,33.771-12.076C72.675,175.831,54.1,183.679,52.9,176.117c-1.425-8.946-18.846-18.862-26.184-4.544-7.1,13.863-11.07,3-19.755,7.6C-5.58,185.828-2.583,209.454,27.6,207.386Z" transform="translate(-0.002 -80.428)" fill="#c7cc86"/>
      <path id="Path_118" data-name="Path 118" d="M93.91,222.24s19.122,2.262,18.7,4.131-18.525-3.135-18.525-3.135Z" transform="translate(-45.96 -108.757)" fill="#7cbdb1"/>
      <path id="Path_119" data-name="Path 119" d="M77.58,219.068s20.577-14.4,21.379-13.786-20.332,14.807-20.332,14.807Z" transform="translate(-37.968 -100.448)" fill="#7cbdb1"/>
      <path id="Path_120" data-name="Path 120" d="M73.78,218.7h1.491c.311-1.159.985-3.574,1.787-6.587l.587-2.18c2.359-8.844,5.4-20.664,4.764-20.6-.439.051-2.15,5.7-3.947,12.1-.123.434-.25.873-.368,1.312-.812,2.89-1.624,5.867-2.328,8.5v.061C74.842,214.666,74.112,217.448,73.78,218.7Z" transform="translate(-36.109 -92.656)" fill="#7cbdb1"/>
      <path id="Path_121" data-name="Path 121" d="M72.064,198.931c.3.465.6.924.888,1.358,1.384,2.114,2.553,3.789,2.553,3.789l.74-.669s-1.3-2.226-2.864-4.728c-.3-.511-.6-.97-.909-1.455-1.925-3.064-3.916-5.949-4.2-5.433S70.057,195.816,72.064,198.931Z" transform="translate(-33.402 -93.827)" fill="#7cbdb1"/>
      <path id="Path_122" data-name="Path 122" d="M35.674,227.337s-15.706-8.512-16.641-7.148,15.829,7.659,15.829,7.659Z" transform="translate(-9.298 -107.681)" fill="#7cbdb1"/>
      <path id="Path_123" data-name="Path 123" d="M46.607,222.225q.169.577.337,1.134c.975,3.263,1.864,6.081,2.1,6.817.48,0,.96-.071,1.46-.112-.357-1.22-2.16-7.348-3.814-12.341-.158-.475-.317-.945-.465-1.4-1.021-3.064-1.951-5.392-2.3-5.4C43.364,210.9,45.019,216.889,46.607,222.225Z" transform="translate(-21.445 -103.217)" fill="#7cbdb1"/>
      <path id="Path_124" data-name="Path 124" d="M29.084,216.632s-.276-7.542-1.021-7.746-.23,7.2-.23,7.2Z" transform="translate(-13.538 -102.22)" fill="#7cbdb1"/>
      <path id="Path_125" data-name="Path 125" d="M48.049,216.75s6.638-8.328,6.265-9.053-6.7,7.659-6.7,7.659Z" transform="translate(-23.301 -101.618)" fill="#7cbdb1"/>
    </g>
  </g>
</svg>
