<svg id="Icon_icon-arrow-right" data-name="Icon / icon-arrow-right" xmlns="http://www.w3.org/2000/svg" xmlns:xlink="http://www.w3.org/1999/xlink" width="54" height="54" viewBox="0 0 54 54">
  <defs>
    <clipPath id="clip-path">
      <path id="Shape" d="M-5.673,31.5a2.265,2.265,0,0,0,.306-.031,2.256,2.256,0,0,0,.852-.336,2.671,2.671,0,0,0,.357-.29l13.5-13.5a2.25,2.25,0,0,0,0-3.182L-4.158.659a2.255,2.255,0,0,0-.232-.2A2.258,2.258,0,0,0-5.367.033a2.261,2.261,0,0,0-.765,0,2.257,2.257,0,0,0-.584.185,2.268,2.268,0,0,0-1.272,1.8,2.258,2.258,0,0,0,.094.911,2.253,2.253,0,0,0,.352.679,2.257,2.257,0,0,0,.2.232l11.91,11.91L-7.341,27.66l-.1.112a2.241,2.241,0,0,0-.186.245,2.254,2.254,0,0,0-.3.7,2.255,2.255,0,0,0-.063.61,2.268,2.268,0,0,0,1.146,1.885,2.255,2.255,0,0,0,.72.256,2.265,2.265,0,0,0,.306.031Z" transform="translate(8 0)" fill="rgba(255,255,255,0.46)"/>
    </clipPath>
  </defs>
  <path id="Shape-2" data-name="Shape" d="M0,0H54V54H0Z" fill="none"/>
  <g id="Group_16" data-name="Group 16" transform="translate(20.25 11.25)">
    <path id="Shape-3" data-name="Shape" d="M-5.673,31.5a2.265,2.265,0,0,0,.306-.031,2.256,2.256,0,0,0,.852-.336,2.671,2.671,0,0,0,.357-.29l13.5-13.5a2.25,2.25,0,0,0,0-3.182L-4.158.659a2.255,2.255,0,0,0-.232-.2A2.258,2.258,0,0,0-5.367.033a2.261,2.261,0,0,0-.765,0,2.257,2.257,0,0,0-.584.185,2.268,2.268,0,0,0-1.272,1.8,2.258,2.258,0,0,0,.094.911,2.253,2.253,0,0,0,.352.679,2.257,2.257,0,0,0,.2.232l11.91,11.91L-7.341,27.66l-.1.112a2.241,2.241,0,0,0-.186.245,2.254,2.254,0,0,0-.3.7,2.255,2.255,0,0,0-.063.61,2.268,2.268,0,0,0,1.146,1.885,2.255,2.255,0,0,0,.72.256,2.265,2.265,0,0,0,.306.031Z" transform="translate(8 0)" fill="rgba(255,255,255,0.46)"/>
    <g id="Mask_Group_16" data-name="Mask Group 16" transform="translate(0 0)" clip-path="url(#clip-path)">
      <g id="Icon_Fill" data-name="Icon Fill" transform="translate(-20.25 -11.25)">
        <rect id="BG" width="54" height="54" transform="translate(0 0)" fill="rgba(255,255,255,0.46)"/>
      </g>
    </g>
  </g>
</svg>
