<svg xmlns="http://www.w3.org/2000/svg" width="33" height="22" viewBox="0 0 33 22">
  <g id="Group_568" data-name="Group 568" transform="translate(-1439 -4555)">
    <g id="Group_567" data-name="Group 567" transform="translate(75 -9)">
      <rect id="Rectangle_487" data-name="Rectangle 487" width="33" height="22" rx="3" transform="translate(1364 4564)" fill="#b7c5d3"/>
      <rect id="Rectangle_488" data-name="Rectangle 488" width="28" height="13" transform="translate(1367 4569)" fill="#fff"/>
      <g id="coupon" transform="translate(1367 4567)">
        <path id="Path_648" data-name="Path 648" d="M64.422,105.489a.938.938,0,0,0,.182-.623v-.574a.955.955,0,0,0-.185-.63.7.7,0,0,0-.583-.257.752.752,0,0,0-.607.257.983.983,0,0,0-.227.63v.574a.959.959,0,0,0,.233.623.742.742,0,0,0,.6.25A.713.713,0,0,0,64.422,105.489Z" transform="translate(-57.062 -99.845)" fill="#b7c5d3"/>
        <path id="Path_649" data-name="Path 649" d="M118.813,168.07a.731.731,0,0,0-.6.257.962.962,0,0,0-.213.623v.574a.892.892,0,0,0,.243.619.76.76,0,0,0,.582.261.708.708,0,0,0,.619-.231,1.113,1.113,0,0,0,.158-.649v-.574a.943.943,0,0,0-.205-.623A.711.711,0,0,0,118.813,168.07Z" transform="translate(-106.875 -158.356)" fill="#b7c5d3"/>
        <path id="Path_650" data-name="Path 650" d="M0,66V81.7H28V66Zm4.337,5.023v-.578a2.243,2.243,0,0,1,.648-1.617,2.394,2.394,0,0,1,1.789-.642,2.333,2.333,0,0,1,1.769.642,2.208,2.208,0,0,1,.6,1.617v.578a2.178,2.178,0,0,1-.6,1.61,2.347,2.347,0,0,1-1.763.634,2.438,2.438,0,0,1-1.8-.638A2.208,2.208,0,0,1,4.337,71.023Zm1.69,6.838,5.286-8.541,1.168.593L7.194,78.454l-1.167-.593Zm8.3-.69a2.211,2.211,0,0,1-.613,1.617,2.36,2.36,0,0,1-1.769.634,2.418,2.418,0,0,1-1.793-.638,2.19,2.19,0,0,1-.633-1.614v-.578a2.2,2.2,0,0,1,.632-1.61,2.391,2.391,0,0,1,1.784-.642,2.363,2.363,0,0,1,1.78.638,2.214,2.214,0,0,1,.613,1.614Zm5.939,2.249h-1.6v-2.76h1.6Zm0-4.188h-1.6v-2.76h1.6Zm0-4.283h-1.6v-2.76h1.6Z" transform="translate(0 -66)" fill="#b7c5d3"/>
      </g>
    </g>
  </g>
</svg>
