<svg xmlns="http://www.w3.org/2000/svg" width="1920.001" height="152.489" viewBox="0 0 1920.001 152.489">
  <path id="Subtraction_1" data-name="Subtraction 1" d="M2059,152.489H139V22.848c.067.045,7.582,4.982,23.341,12.285,9.233,4.279,19.442,8.515,30.343,12.592,13.623,5.094,28.369,9.951,43.83,14.435,39.352,11.412,83.5,20.505,131.231,27.027,28.335,3.872,58.265,6.868,88.957,8.907,33.76,2.242,69.274,3.378,105.556,3.378,22.565,0,45.9-.44,69.35-1.307,24.534-.907,49.9-2.308,75.391-4.165,23.214-2.01,47.183-4.486,73.277-7.568,23.313-2.754,47.851-5.938,75.014-9.735C905.855,71.63,956.5,63.707,1010.113,55.32l.01,0h.008c85.673-13.4,174.263-27.261,264.6-37.732,48.791-5.655,93.571-9.816,136.9-12.719,23.538-1.578,46.888-2.786,69.4-3.591C1504.706.429,1528.245,0,1551,0c68.884,0,138.455,2.1,206.781,6.25,54.664,3.318,108.654,7.944,160.469,13.75,46.1,5.165,81.917,10.328,103.844,13.75,23.845,3.721,36.778,6.225,36.906,6.25V152.488Z" transform="translate(-139)" fill="#f1f1f1"/>
</svg>
