<svg xmlns="http://www.w3.org/2000/svg" width="412" height="229.89" viewBox="0 0 412 229.89">
  <g id="圖層_2" data-name="圖層 2" transform="translate(-0.001 -0.002)">
    <g id="_Layer_" data-name="&lt;Layer&gt;" transform="translate(0.001 0.002)">
      <path id="Path_56" data-name="Path 56" d="M349.38,160.388c-18.434-37.149-75.778-93.113-172.611-100.4A210.138,210.138,0,0,0,121.1,62.785c-4.908-5.085-10.744-9.639-11.113-18.179C109.3,28.788,112.735,4.716,94.165.59S81.1,15.032,70.094,26.052,59.778,46,59.778,60.44c0,10.577-19.914,25.207-4.918,31.2-26.077,19.565-40.2,43.151-46.194,56.078-1.891,4.022-7.722,17.09-8.092,21.3-.443,5.1-4.413,11.6,16.918,21.154a38.351,38.351,0,0,0,6.445,2.027c2.162,7.435,10.707,14.167,27.614,13.026.521-.031.985-.073,1.49-.115q1.454-.141,2.98-.349c1.079-.146,2.157-.255,3.241-.339,23.363,33.658,303.529,24.634,333.53,23.613C419.15,227.132,429.414,189.587,349.38,160.388Z" transform="translate(-0.001 -0.002)" fill="#fff"/>
      <path id="Path_57" data-name="Path 57" d="M111.76,321.073s68.192-81.718,221.363-53.39,145.074,84.6,112.7,85.7S90.3,364.891,111.76,321.073Z" transform="translate(-53.041 -125.356)" fill="#7bb3a9" opacity="0.35"/>
      <path id="Path_58" data-name="Path 58" d="M.573,223.541c.37-4.21,6.221-17.277,8.092-21.315,12.14-26.166,57.506-96.036,168.1-87.715C308.776,124.442,367.4,224.849,354.09,244.7s-304.592,14.354-336.6,0C-3.84,235.145.131,228.637.573,223.541Z" transform="translate(-0.001 -54.521)" fill="#ccd39c" opacity="0.63"/>
      <path id="Path_59" data-name="Path 59" d="M133.264,94.124s37.827,2.751,39.89-14.443S155.96,60.4,155.273,44.606,158.024,4.716,139.454.59s-13.067,14.443-24.071,25.463S105.066,46,105.066,60.44,67.928,96.875,133.264,94.124Z" transform="translate(-45.289 -0.002)" fill="#7bb3a9"/>
      <path id="Path_60" data-name="Path 60" d="M172.435,136.184c10.217-5.106,14.38-16.631,14.552-17.116l-1.3-.459c-.036.115-4.168,11.494-13.87,16.345Z" transform="translate(-82.298 -56.812)" fill="#c7cc86"/>
      <path id="Path_61" data-name="Path 61" d="M170.966,141.732s1.261-1.49.573-9.514,0-64.878-2.084-65.128c-1.094-.125-.854,22.784-.8,42.87C168.72,127.753,166.725,141.846,170.966,141.732Z" transform="translate(-80.584 -32.135)" fill="#c7cc86"/>
      <path id="Path_62" data-name="Path 62" d="M159.968,107.461l.354-1.329c-8.936-2.4-12.1-11.608-12.135-11.7l-1.308.432C147.036,95.248,150.334,104.871,159.968,107.461Z" transform="translate(-70.352 -45.23)" fill="#c7cc86"/>
      <path id="Path_63" data-name="Path 63" d="M181.81,307.76c.625-.036,1.25-.094,1.9-.146,1.235-.12,2.5-.266,3.8-.448a66.547,66.547,0,0,1,7.4-.589c.646,0,1.282-.026,1.938,0h1.042c12.4.328,44.975,3.126,43.9-15.7-1.37-24.139-25.53-13.911-27.093-23.764-1.85-11.634-24.488-24.525-34.039-5.914-9.238,18.028-14.4,3.9-25.681,9.9C138.669,279.734,142.567,310.448,181.81,307.76Z" transform="translate(-69.894 -120.613)" fill="#6da49a"/>
      <path id="Path_64" data-name="Path 64" d="M265.57,325.56s24.863,2.944,24.316,5.372-24.092-4.074-24.092-4.074Z" transform="translate(-127.201 -155.936)" fill="#7cbdb1"/>
      <path id="Path_65" data-name="Path 65" d="M244.77,321.889s26.75-18.731,27.792-17.913-26.432,19.278-26.432,19.278Z" transform="translate(-117.239 -145.585)" fill="#7cbdb1"/>
      <path id="Path_66" data-name="Path 66" d="M239.93,321.83c.646,0,1.282-.026,1.938,0,.406-1.506,1.277-4.689,2.324-8.56q.365-1.365.761-2.834c3.069-11.5,7.023-26.864,6.195-26.775-.573.063-2.8,7.414-5.132,15.719-.162.568-.328,1.136-.479,1.709-1.042,3.762-2.11,7.628-3.027,11.046v.078C241.311,316.583,240.357,320.194,239.93,321.83Z" transform="translate(-114.921 -135.866)" fill="#7cbdb1"/>
      <path id="Path_67" data-name="Path 67" d="M237.829,296.054c.386.6.776,1.2,1.151,1.766,1.8,2.746,3.309,4.919,3.309,4.919l.964-.87s-1.693-2.886-3.725-6.143c-.38-.625-.776-1.261-1.183-1.891-2.5-3.949-5.09-7.732-5.455-7.065S235.218,292.006,237.829,296.054Z" transform="translate(-111.532 -137.319)" fill="#7cbdb1"/>
      <path id="Path_68" data-name="Path 68" d="M191.813,332.264s-20.419-11.061-21.638-9.316,20.6,9.978,20.6,9.978Z" transform="translate(-81.486 -154.595)" fill="#7cbdb1"/>
      <path id="Path_69" data-name="Path 69" d="M205.38,325.833q.219.75.438,1.469c1.271,4.241,2.428,7.914,2.735,8.857.625-.036,1.25-.094,1.9-.146-.464-1.589-2.808-9.556-4.96-16.048-.2-.62-.406-1.23-.6-1.818-1.349-3.97-2.532-7.008-2.986-7.018C201.17,311.114,203.322,318.878,205.38,325.833Z" transform="translate(-96.637 -149.024)" fill="#7cbdb1"/>
      <path id="Path_70" data-name="Path 70" d="M183.024,318.616s-.365-9.806-1.339-10.071-.271,9.378-.271,9.378Z" transform="translate(-86.775 -147.783)" fill="#7cbdb1"/>
      <path id="Path_71" data-name="Path 71" d="M207.163,318.807s8.623-10.827,8.138-11.77-8.712,9.941-8.712,9.941Z" transform="translate(-98.952 -147.036)" fill="#7cbdb1"/>
      <path id="Path_72" data-name="Path 72" d="M73.031,353.512c.521-.031.985-.073,1.49-.115q1.454-.141,2.98-.349a50.646,50.646,0,0,1,5.809-.464h2.334c9.728.255,35.3,2.454,34.455-12.327-1.073-18.945-20.023-10.942-21.247-18.653-1.454-9.134-19.231-19.247-26.718-4.642-7.247,14.151-11.3,3.069-20.159,7.763C39.175,331.514,42.228,355.622,73.031,353.512Z" transform="translate(-21.491 -148.291)" fill="#c7cc86"/>
      <path id="Path_73" data-name="Path 73" d="M138.77,367.49s19.518,2.308,19.085,4.21-18.9-3.194-18.9-3.194Z" transform="translate(-66.468 -176.019)" fill="#7cbdb1"/>
      <path id="Path_74" data-name="Path 74" d="M122.45,364.6s21-14.7,21.815-14.068-20.747,15.11-20.747,15.11Z" transform="translate(-58.651 -167.887)" fill="#7cbdb1"/>
      <path id="Path_75" data-name="Path 75" d="M118.65,364.554h1.521c.318-1.183,1.006-3.647,1.824-6.727.193-.709.391-1.454.6-2.22,2.407-9.024,5.507-21.086,4.861-21.018-.448.052-2.194,5.82-4.028,12.343-.13.438-.255.891-.38,1.339-.823,2.949-1.652,5.987-2.371,8.665V357C119.734,360.433,118.989,363.272,118.65,364.554Z" transform="translate(-56.831 -160.261)" fill="#7cbdb1"/>
      <path id="Path_76" data-name="Path 76" d="M117.012,344.324c.3.474.61.938.907,1.386,1.412,2.157,2.605,3.861,2.605,3.861l.756-.683s-1.329-2.266-2.923-4.825c-.3-.49-.61-.985-.927-1.48-1.964-3.1-4-6.07-4.283-5.549S114.964,341.156,117.012,344.324Z" transform="translate(-54.182 -161.403)" fill="#7cbdb1"/>
      <path id="Path_77" data-name="Path 77" d="M80.885,372.736s-16.027-8.686-16.98-7.294,16.152,7.815,16.152,7.815Z" transform="translate(-30.591 -174.965)" fill="#7cbdb1"/>
      <path id="Path_78" data-name="Path 78" d="M91.533,367.705q.172.589.344,1.157c1,3.324,1.9,6.205,2.141,6.956.521-.031.985-.073,1.49-.115-.36-1.245-2.2-7.5-3.892-12.6-.156-.485-.318-.959-.469-1.422-1.042-3.126-1.99-5.5-2.345-5.512C88.224,356.149,89.891,362.261,91.533,367.705Z" transform="translate(-42.478 -170.597)" fill="#7cbdb1"/>
      <path id="Path_79" data-name="Path 79" d="M73.991,362.04s-.287-7.7-1.042-7.9-.219,7.362-.219,7.362Z" transform="translate(-34.748 -169.621)" fill="#7cbdb1"/>
      <path id="Path_80" data-name="Path 80" d="M92.928,362.186s6.773-8.5,6.388-9.238-6.836,7.815-6.836,7.815Z" transform="translate(-44.296 -169.032)" fill="#7cbdb1"/>
      <path id="Path_81" data-name="Path 81" d="M445.968,360.082c.49-.026.985-.073,1.49-.115.969-.094,1.959-.208,2.98-.349a50.467,50.467,0,0,1,5.809-.464h2.329c9.733.255,35.3,2.454,34.461-12.322-1.078-18.95-20.023-10.942-21.253-18.658-1.454-9.134-19.231-19.247-26.718-4.642-7.247,14.151-11.3,3.069-20.158,7.763C412.106,338.084,415.165,362.192,445.968,360.082Z" transform="translate(-200.117 -151.438)" fill="#c7cc86"/>
      <path id="Path_82" data-name="Path 82" d="M511.71,374.06s19.512,2.308,19.085,4.21-18.9-3.2-18.9-3.2Z" transform="translate(-245.096 -179.166)" fill="#7cbdb1"/>
      <path id="Path_83" data-name="Path 83" d="M495.38,371.169s21-14.7,21.816-14.068-20.747,15.11-20.747,15.11Z" transform="translate(-237.274 -171.034)" fill="#7cbdb1"/>
      <path id="Path_84" data-name="Path 84" d="M491.59,371.124h1.516c.323-1.183,1.006-3.647,1.824-6.721.193-.714.4-1.459.6-2.225,2.412-9.024,5.512-21.086,4.861-21.018-.448.052-2.194,5.82-4.028,12.343-.125.438-.255.891-.375,1.339-.828,2.949-1.657,5.987-2.376,8.67v.062C492.674,367,491.923,369.842,491.59,371.124Z" transform="translate(-235.459 -163.407)" fill="#7cbdb1"/>
      <path id="Path_85" data-name="Path 85" d="M489.942,350.894c.3.474.61.938.907,1.386,1.412,2.157,2.605,3.861,2.605,3.861l.756-.683s-1.329-2.266-2.923-4.819c-.3-.521-.609-.99-.927-1.485-1.964-3.1-4-6.07-4.283-5.549S487.894,347.716,489.942,350.894Z" transform="translate(-232.805 -164.55)" fill="#7cbdb1"/>
      <path id="Path_86" data-name="Path 86" d="M453.815,379.306s-16.022-8.686-16.98-7.294,16.152,7.815,16.152,7.815Z" transform="translate(-209.214 -178.112)" fill="#7cbdb1"/>
      <path id="Path_87" data-name="Path 87" d="M464.464,374.275q.172.589.344,1.157c1,3.329,1.9,6.205,2.147,6.956.49-.026.985-.073,1.49-.115-.365-1.245-2.2-7.5-3.892-12.593-.156-.485-.323-.964-.474-1.428-1.042-3.126-1.985-5.5-2.345-5.512C461.156,362.719,462.859,368.831,464.464,374.275Z" transform="translate(-221.104 -173.744)" fill="#7cbdb1"/>
      <path id="Path_88" data-name="Path 88" d="M446.933,368.61s-.287-7.7-1.042-7.9-.214,7.362-.214,7.362Z" transform="translate(-213.378 -172.768)" fill="#7cbdb1"/>
      <path id="Path_89" data-name="Path 89" d="M465.858,368.756s6.773-8.5,6.393-9.238-6.841,7.815-6.841,7.815Z" transform="translate(-222.92 -172.179)" fill="#7cbdb1"/>
      <path id="Path_90" data-name="Path 90" d="M324.447,400.83s7.581-7.815,4.971-12.249-7.008,9.55-7.008,9.55,2.282-16.548-2.444-16.834,0,16.834,0,16.834-1.756-3.991-3.465-4.241-1.224,3.387,1.834,6.94Z" transform="translate(-151.128 -182.63)" fill="#cfd8ac"/>
      <path id="Path_91" data-name="Path 91" d="M326.411,398.5c.313-.328,7.68-7.993,5.007-12.546a1.592,1.592,0,0,0-1.506-.985c-1.959.224-4.106,5.361-5.21,8.43.37-3.84.787-11.421-1.3-13.964a2.251,2.251,0,0,0-1.631-.886,1.7,1.7,0,0,0-1.506.656c-1.886,2.324-.193,10.6.74,14.474-.693-1.131-1.678-2.392-2.678-2.537a.98.98,0,0,0-1.068.521c-.615,1.12.219,3.986,2.678,6.846l.375-.323c-2.418-2.814-3.074-5.46-2.605-6.289a.484.484,0,0,1,.563-.245c1.292.182,2.8,3.017,3.277,4.09l.458-.161c-.036-.13-3.621-13.239-1.344-16.048a1.24,1.24,0,0,1,1.094-.474,1.756,1.756,0,0,1,1.282.709c2.642,3.225.953,15.719.933,15.844l.479.109c.875-2.777,3.569-10.019,5.533-10.243.375-.042.709.2,1.042.745,2.485,4.236-4.861,11.874-4.939,11.952Z" transform="translate(-151.867 -181.314)" fill="#444092"/>
      <path id="Path_92" data-name="Path 92" d="M423.382,212.52s7.581-7.815,4.971-12.249-7.008,9.545-7.008,9.545,2.261-16.543-2.428-16.819,0,16.829,0,16.829-1.756-3.991-3.465-4.236-1.224,3.381,1.834,6.94Z" transform="translate(-198.523 -92.44)" fill="#cfd8ac"/>
      <path id="Path_93" data-name="Path 93" d="M425.281,210.178c.318-.323,7.68-7.987,5.007-12.541a1.592,1.592,0,0,0-1.506-.985c-1.959.219-4.1,5.361-5.21,8.425.37-3.835.787-11.416-1.3-13.958a2.235,2.235,0,0,0-1.631-.886,1.709,1.709,0,0,0-1.506.651c-1.886,2.329-.193,10.6.74,14.479-.693-1.131-1.678-2.392-2.678-2.537a.985.985,0,0,0-1.068.521c-.615,1.12.224,3.991,2.678,6.846l.375-.318c-2.418-2.814-3.074-5.46-2.605-6.289a.521.521,0,0,1,.563-.25c1.3.188,2.8,3.022,3.277,4.1l.458-.162c-.036-.135-3.616-13.239-1.344-16.048a1.224,1.224,0,0,1,1.094-.474,1.761,1.761,0,0,1,1.282.7c2.642,3.225.953,15.725.933,15.85l.479.1c.875-2.772,3.569-10.019,5.533-10.238.375-.047.714.2,1.042.745,2.485,4.231-4.861,11.874-4.934,11.952Z" transform="translate(-199.224 -91.114)" fill="#444092"/>
      <path id="Path_94" data-name="Path 94" d="M104.043,241.39s7.581-7.815,4.976-12.249-7.013,9.55-7.013,9.55,2.282-16.548-2.444-16.834,0,16.834,0,16.834-1.751-3.991-3.46-4.257-1.219,3.387,1.834,6.94Z" transform="translate(-45.564 -106.263)" fill="#cfd8ac"/>
      <path id="Path_95" data-name="Path 95" d="M105.98,239.064c.313-.328,7.675-7.993,5.007-12.546a1.6,1.6,0,0,0-1.511-.985c-1.959.224-4.1,5.361-5.21,8.43.37-3.84.787-11.421-1.3-13.964a2.24,2.24,0,0,0-1.631-.886,1.709,1.709,0,0,0-1.506.656c-1.881,2.324-.188,10.6.74,14.474-.693-1.131-1.672-2.391-2.678-2.537a.974.974,0,0,0-1.042.521c-.615,1.12.219,3.986,2.678,6.846l.37-.323c-2.418-2.814-3.074-5.46-2.605-6.289a.49.49,0,0,1,.568-.245c1.292.182,2.8,3.017,3.272,4.09l.464-.162c-.036-.13-3.647-13.239-1.344-16.048a1.23,1.23,0,0,1,1.089-.474,1.74,1.74,0,0,1,1.282.709c2.642,3.225.953,15.719.938,15.844l.479.109c.87-2.777,3.564-10.019,5.533-10.243.37-.042.709.2,1.042.745,2.485,4.236-4.861,11.874-4.934,11.952Z" transform="translate(-46.297 -104.947)" fill="#444092"/>
      <path id="Path_96" data-name="Path 96" d="M620.877,363.97s7.581-7.815,4.971-12.249-7.008,9.545-7.008,9.545,2.282-16.543-2.444-16.829,0,16.829,0,16.829-1.756-3.991-3.465-4.236-1.224,3.387,1.834,6.94Z" transform="translate(-293.111 -164.975)" fill="#cfd8ac"/>
      <path id="Path_97" data-name="Path 97" d="M622.791,361.658c.318-.323,7.68-7.987,5.007-12.541a1.592,1.592,0,0,0-1.506-.985c-1.959.224-4.106,5.361-5.21,8.425.37-3.835.787-11.416-1.3-13.958a2.235,2.235,0,0,0-1.631-.886,1.7,1.7,0,0,0-1.506.656c-1.886,2.324-.193,10.6.74,14.474-.693-1.131-1.678-2.391-2.678-2.537a.98.98,0,0,0-1.068.521c-.615,1.115.219,3.986,2.678,6.841l.375-.318c-2.418-2.814-3.074-5.46-2.605-6.289a.521.521,0,0,1,.563-.25c1.3.188,2.8,3.022,3.277,4.1l.459-.161c-.036-.135-3.621-13.239-1.344-16.048a1.224,1.224,0,0,1,1.094-.474,1.75,1.75,0,0,1,1.282.709c2.642,3.22.954,15.719.933,15.844l.479.1c.875-2.772,3.569-10.019,5.533-10.238.375-.047.714.2,1.042.745,2.485,4.231-4.861,11.874-4.939,11.952Z" transform="translate(-293.826 -163.669)" fill="#444092"/>
      <path id="Path_98" data-name="Path 98" d="M665.312,396.155s7.581-7.815,4.971-12.244-7.008,9.545-7.008,9.545,2.282-16.543-2.449-16.829,0,16.829,0,16.829-1.751-3.991-3.465-4.241-1.219,3.387,1.834,6.94Z" transform="translate(-314.391 -180.394)" fill="#cfd8ac"/>
      <path id="Path_99" data-name="Path 99" d="M667.245,393.824c.313-.323,7.68-7.993,5.007-12.541a1.6,1.6,0,0,0-1.511-.99c-1.954.224-4.1,5.361-5.21,8.43.365-3.84.782-11.416-1.3-13.964a2.261,2.261,0,0,0-1.631-.886,1.7,1.7,0,0,0-1.5.657c-1.886,2.324-.193,10.6.74,14.479-.693-1.136-1.678-2.4-2.683-2.537a.974.974,0,0,0-1.042.5c-.615,1.12.219,3.986,2.678,6.846l.37-.323c-2.418-2.808-3.074-5.455-2.6-6.284a.521.521,0,0,1,.563-.25c1.292.188,2.8,3.017,3.272,4.1l.464-.167c-.036-.13-3.647-13.239-1.344-16.042a1.229,1.229,0,0,1,1.094-.479,1.756,1.756,0,0,1,1.277.709c2.642,3.225.953,15.719.938,15.844l.479.109c.87-2.772,3.569-10.019,5.533-10.243.37-.042.709.2,1.042.745,2.485,4.236-4.861,11.879-4.934,11.952Z" transform="translate(-315.126 -179.073)" fill="#444092"/>
    </g>
  </g>
</svg>
