<svg xmlns="http://www.w3.org/2000/svg" width="450.446" height="289.484" viewBox="0 0 450.446 289.484">
  <g id="圖層_2" data-name="圖層 2" transform="translate(0.004 -0.001)">
    <g id="_Layer_" data-name="&lt;Layer&gt;" transform="translate(-0.004 0.001)">
      <path id="Path_487" data-name="Path 487" d="M1.71,482.9s28.077-40.645,94.708-30.286,57.561,40.672,44.768,43.276-131.3,6.049-137.792,0S1.71,482.9,1.71,482.9Z" transform="translate(0.004 -209.766)" fill="#fff"/>
      <path id="Path_488" data-name="Path 488" d="M548.794,245.717v96.051s-39.806,29.414-154.024,36.34S173.126,353.015,224.7,322.729s76.627-17.306,114.277-51.919S548.794,245.717,548.794,245.717Z" transform="translate(-98.348 -113.75)" fill="#cfd8ac"/>
      <path id="Path_489" data-name="Path 489" d="M1.71,482.9s28.077-40.645,94.708-30.286,57.561,40.672,44.768,43.276-131.3,6.049-137.792,0S1.71,482.9,1.71,482.9Z" transform="translate(0.004 -209.766)" fill="#6da49a" opacity="0.5"/>
      <path id="Path_490" data-name="Path 490" d="M674.448,454.48c-.535-.027-1.07-.075-1.6-.123-1.07-.1-2.139-.225-3.209-.374a54.059,54.059,0,0,0-6.311-.5c-.535,0-1.07-.027-1.647,0H660.8c-10.541.278-38.228,2.674-37.319-13.37,1.166-20.52,21.686-11.825,23-20.2,1.572-9.894,20.825-20.857,28.933-5.027,7.851,15.322,12.236,3.321,21.831,8.407C711.114,430.66,707.8,456.769,674.448,454.48Z" transform="translate(-290.029 -189.293)" fill="#6da49a"/>
      <path id="Path_491" data-name="Path 491" d="M658.774,468s-21.135,2.5-20.67,4.562,20.467-3.46,20.467-3.46Z" transform="translate(-296.838 -217.712)" fill="#7cbdb1"/>
      <path id="Path_492" data-name="Path 492" d="M673.431,465.371s-22.734-15.916-23.622-15.221,22.462,16.365,22.462,16.365Z" transform="translate(-302.275 -209.399)" fill="#7cbdb1"/>
      <path id="Path_493" data-name="Path 493" d="M689.624,465.776c-.535,0-1.07-.027-1.647,0-.348-1.278-1.07-3.968-1.973-7.279-.209-.77-.428-1.572-.652-2.407-2.61-9.776-5.963-22.836-5.263-22.761.487.059,2.38,6.3,4.359,13.37.139.481.278.968.412,1.449.893,3.209,1.792,6.487,2.572,9.391v.07C688.442,461.305,689.255,464.381,689.624,465.776Z" transform="translate(-316.328 -201.584)" fill="#7cbdb1"/>
      <path id="Path_494" data-name="Path 494" d="M691.967,443.811c-.332.535-.663,1.016-.984,1.5-1.53,2.332-2.808,4.182-2.808,4.182l-.845-.717s1.439-2.455,3.161-5.225c.326-.535.663-1.07,1.005-1.6,2.139-3.353,4.332-6.567,4.637-6.006S694.154,440.372,691.967,443.811Z" transform="translate(-319.741 -202.77)" fill="#7cbdb1"/>
      <path id="Path_495" data-name="Path 495" d="M721.33,473.747s17.354-9.4,18.387-7.915-17.493,8.477-17.493,8.477Z" transform="translate(-335.558 -216.629)" fill="#7cbdb1"/>
      <path id="Path_496" data-name="Path 496" d="M720.1,468.573q-.187.636-.369,1.251c-1.07,3.6-2.064,6.723-2.326,7.53-.535-.027-1.07-.075-1.6-.123.4-1.348,2.385-8.118,4.214-13.637.171-.535.348-1.043.535-1.546,1.15-3.375,2.139-5.958,2.54-5.968C723.683,456.037,721.854,462.674,720.1,468.573Z" transform="translate(-332.985 -212.167)" fill="#7cbdb1"/>
      <path id="Path_497" data-name="Path 497" d="M743.7,462.493s.31-8.338,1.139-8.557.23,7.974.23,7.974Z" transform="translate(-345.964 -211.168)" fill="#7cbdb1"/>
      <path id="Path_498" data-name="Path 498" d="M718.656,462.683s-7.327-9.2-6.92-10.006,7.407,8.45,7.407,8.45Z" transform="translate(-331.087 -210.561)" fill="#7cbdb1"/>
      <path id="Path_499" data-name="Path 499" d="M60.861,465.627c-.358,0-.722-.054-1.07-.086-.711-.07-1.444-.15-2.193-.257a38.33,38.33,0,0,0-4.278-.342H51.6c-7.166.193-26,1.808-25.376-9.092.792-13.953,14.745-8.022,15.648-13.739,1.07-6.723,14.162-14.172,19.675-3.417,5.348,10.423,8.322,2.257,14.846,5.717C85.772,449.428,83.521,467.178,60.861,465.627Z" transform="translate(-12.192 -201.557)" fill="#6da49a"/>
      <path id="Path_500" data-name="Path 500" d="M50.13,474.83s-14.37,1.7-14.055,3.1,13.9-2.353,13.9-2.353Z" transform="translate(-16.778 -220.89)" fill="#7cbdb1"/>
      <path id="Path_501" data-name="Path 501" d="M60.1,473.031s-15.461-10.824-16.044-10.354,15.258,11.135,15.258,11.135Z" transform="translate(-20.486 -215.229)" fill="#7cbdb1"/>
      <path id="Path_502" data-name="Path 502" d="M71.105,473.3H69.987c-.235-.872-.743-2.674-1.348-4.947-.139-.535-.289-1.07-.439-1.642-1.776-6.642-4.059-15.509-3.578-15.472.326.037,1.6,4.278,2.963,9.092.1.326.193.652.278.984.61,2.166,1.209,4.4,1.743,6.375v.048C70.308,470.268,70.859,472.359,71.105,473.3Z" transform="translate(-30.03 -209.915)" fill="#7cbdb1"/>
      <path id="Path_503" data-name="Path 503" d="M72.7,458.379c-.225.353-.449.7-.669,1.021-1.038,1.6-1.909,2.845-1.909,2.845l-.535-.5s.979-1.669,2.139-3.551c.225-.364.449-.727.685-1.07,1.444-2.278,2.941-4.466,3.155-4.081S74.211,456.042,72.7,458.379Z" transform="translate(-32.371 -210.733)" fill="#7cbdb1"/>
      <path id="Path_504" data-name="Path 504" d="M92.67,478.728s11.8-6.418,12.5-5.385-11.9,5.765-11.9,5.765Z" transform="translate(-43.108 -220.145)" fill="#7cbdb1"/>
      <path id="Path_505" data-name="Path 505" d="M91.835,475.2c-.086.289-.171.572-.251.85-.738,2.449-1.4,4.573-1.6,5.123-.358,0-.722-.053-1.07-.086.267-.92,1.6-5.525,2.867-9.274l.348-1.07c.781-2.294,1.465-4.048,1.727-4.054C94.269,466.69,93.028,471.188,91.835,475.2Z" transform="translate(-41.359 -217.103)" fill="#7cbdb1"/>
      <path id="Path_506" data-name="Path 506" d="M107.88,471.076s.214-5.669.775-5.819.16,5.423.16,5.423Z" transform="translate(-50.183 -216.435)" fill="#7cbdb1"/>
      <path id="Path_507" data-name="Path 507" d="M90.9,471.2s-4.984-6.257-4.706-6.8,5.038,5.744,5.038,5.744Z" transform="translate(-40.088 -216.022)" fill="#7cbdb1"/>
      <path id="Path_508" data-name="Path 508" d="M525.815,124.877s-50.186,3.647-52.946-19.162,22.815-25.553,23.724-46.528S492.967,6.258,517.605.781s17.333,19.162,31.933,33.762S563.224,61,563.224,80.162,612.5,128.525,525.815,124.877Z" transform="translate(-219.878 -0.001)" fill="#6da49a"/>
      <path id="Path_509" data-name="Path 509" d="M549.946,176.627c-13.557-6.776-19.082-22.066-19.306-22.708l1.717-.61c.054.155,5.519,15.247,18.4,21.681Z" transform="translate(-246.85 -71.32)" fill="#7cbdb1"/>
      <path id="Path_510" data-name="Path 510" d="M565.182,185.767s-1.674-1.973-.759-12.621,0-86.077,2.738-86.376c1.449-.166,1.134,30.227,1.07,56.876C568.161,167.22,570.808,185.922,565.182,185.767Z" transform="translate(-262.438 -40.365)" fill="#7cbdb1"/>
      <path id="Path_511" data-name="Path 511" d="M567.531,139.36l-.471-1.77c11.857-3.177,16.044-15.4,16.1-15.509l1.733.572C584.709,123.182,580.328,135.942,567.531,139.36Z" transform="translate(-263.792 -56.792)" fill="#7cbdb1"/>
      <path id="Path_512" data-name="Path 512" d="M648.091,210.4s-50.186,3.647-52.919-19.162,22.809-25.553,23.724-46.528S615.243,91.8,639.909,86.321s17.333,19.162,31.933,33.762,13.686,26.457,13.686,45.619S734.778,214.065,648.091,210.4Z" transform="translate(-276.775 -39.794)" fill="#c7cc86"/>
      <path id="Path_513" data-name="Path 513" d="M687.432,271.307s-1.674-1.973-.759-12.621,0-86.077,2.738-86.376c1.449-.166,1.134,30.227,1.07,56.876C690.411,252.76,693.058,271.462,687.432,271.307Z" transform="translate(-319.308 -80.158)" fill="#7cbdb1"/>
      <path id="Path_514" data-name="Path 514" d="M672.207,262.167c-13.557-6.776-19.082-22.066-19.306-22.708l1.717-.61c.054.155,5.519,15.247,18.4,21.681Z" transform="translate(-303.725 -111.113)" fill="#7cbdb1"/>
      <path id="Path_515" data-name="Path 515" d="M689.781,224.9l-.471-1.77c11.857-3.177,16.044-15.4,16.1-15.509l1.733.572C706.959,208.722,702.579,221.461,689.781,224.9Z" transform="translate(-320.662 -96.585)" fill="#7cbdb1"/>
      <path id="Path_516" data-name="Path 516" d="M592.939,501.754c-.4,0-.8-.059-1.209-.091-.786-.075-1.6-.171-2.417-.283a42.457,42.457,0,0,0-4.722-.38H582.7c-7.9.209-28.676,1.995-27.992-10.012.877-15.392,16.269-8.867,17.264-15.151,1.182-7.418,15.622-15.638,21.7-3.77,5.883,11.493,9.177,2.492,16.376,6.305C620.444,483.886,617.962,503.476,592.939,501.754Z" transform="translate(-258.037 -216.821)" fill="#c7cc86"/>
      <path id="Path_517" data-name="Path 517" d="M581.185,511.9s-15.852,1.872-15.509,3.417,15.354-2.594,15.354-2.594Z" transform="translate(-263.145 -238.134)" fill="#7cbdb1"/>
      <path id="Path_518" data-name="Path 518" d="M592.167,509.909s-17.055-11.942-17.723-11.423,16.852,12.3,16.852,12.3Z" transform="translate(-267.218 -231.886)" fill="#7cbdb1"/>
      <path id="Path_519" data-name="Path 519" d="M604.318,510.2h-1.235c-.257-.957-.813-2.974-1.481-5.46-.155-.578-.316-1.182-.487-1.808-1.957-7.327-4.476-17.114-3.947-17.066.364.037,1.781,4.722,3.273,10.022.1.358.209.722.3,1.07.674,2.4,1.342,4.867,1.931,7.043v.053C603.462,506.861,604.045,509.161,604.318,510.2Z" transform="translate(-277.765 -226.025)" fill="#7cbdb1"/>
      <path id="Path_520" data-name="Path 520" d="M606.065,493.732c-.246.385-.5.765-.738,1.128-1.145,1.749-2.107,3.134-2.107,3.134l-.61-.535s1.07-1.845,2.369-3.92q.369-.6.754-1.2c1.6-2.519,3.246-4.931,3.482-4.508S607.728,491.149,606.065,493.732Z" transform="translate(-280.33 -226.914)" fill="#7cbdb1"/>
      <path id="Path_521" data-name="Path 521" d="M628.11,516.188s13.017-7.054,13.793-5.942-13.129,6.364-13.129,6.364Z" transform="translate(-292.192 -237.31)" fill="#7cbdb1"/>
      <path id="Path_522" data-name="Path 522" d="M627.19,512.31c-.091.315-.182.631-.278.936-.808,2.706-1.546,5.043-1.743,5.653-.4,0-.8-.059-1.209-.091.294-1.016,1.792-6.091,3.161-10.231.128-.4.262-.786.385-1.161.861-2.53,1.6-4.471,1.9-4.476C629.864,502.924,628.5,507.887,627.19,512.31Z" transform="translate(-290.262 -233.966)" fill="#7cbdb1"/>
      <path id="Path_523" data-name="Path 523" d="M644.89,507.755s.235-6.257.856-6.418.171,5.984.171,5.984Z" transform="translate(-299.998 -233.219)" fill="#7cbdb1"/>
      <path id="Path_524" data-name="Path 524" d="M626.107,507.907s-5.5-6.9-5.188-7.487,5.551,6.337,5.551,6.337Z" transform="translate(-288.841 -232.778)" fill="#7cbdb1"/>
      <path id="Path_525" data-name="Path 525" d="M204.075,510.077s-7.776-8.022-5.1-12.573,7.2,9.8,7.2,9.8-2.342-16.985,2.508-17.279,0,17.279,0,17.279,1.8-4.1,3.556-4.353,1.251,3.476-1.883,7.124Z" transform="translate(-92.299 -227.957)" fill="#cfd8ac"/>
      <path id="Path_526" data-name="Path 526" d="M201.679,507.762c-.321-.337-7.883-8.2-5.139-12.878a1.636,1.636,0,0,1,1.551-1.011c2.011.23,4.209,5.5,5.348,8.653-.374-3.942-.8-11.718,1.337-14.333a2.3,2.3,0,0,1,1.674-.909,1.754,1.754,0,0,1,1.546.674c1.931,2.385.193,10.883-.759,14.857.711-1.16,1.717-2.455,2.749-2.6a1,1,0,0,1,1.07.535c.631,1.15-.225,4.091-2.749,7.027l-.38-.332c2.481-2.888,3.155-5.6,2.674-6.455a.5.5,0,0,0-.583-.251c-1.326.187-2.877,3.1-3.359,4.2l-.476-.166c.037-.134,3.744-13.589,1.38-16.472a1.262,1.262,0,0,0-1.118-.487,1.786,1.786,0,0,0-1.316.727c-2.711,3.31-.979,16.135-.963,16.263l-.492.112c-.893-2.851-3.658-10.284-5.68-10.514-.38-.043-.727.209-1.07.765-2.551,4.348,4.99,12.188,5.065,12.268Z" transform="translate(-91.149 -226.68)" fill="#444092"/>
      <path id="Path_527" data-name="Path 527" d="M162.644,501.147s-7.781-8.022-5.1-12.573,7.193,9.8,7.193,9.8-2.342-16.98,2.508-17.28,0,17.28,0,17.28,1.8-4.1,3.556-4.353,1.257,3.476-1.882,7.124Z" transform="translate(-73.025 -223.803)" fill="#cfd8ac"/>
      <path id="Path_528" data-name="Path 528" d="M160.279,498.831c-.326-.332-7.883-8.2-5.139-12.878a1.634,1.634,0,0,1,1.546-1.011c2.011.23,4.209,5.5,5.348,8.653-.38-3.942-.808-11.718,1.332-14.333a2.31,2.31,0,0,1,1.674-.909,1.743,1.743,0,0,1,1.546.674c1.936,2.385.2,10.883-.759,14.862.711-1.166,1.722-2.46,2.749-2.61a1,1,0,0,1,1.1.535c.631,1.15-.23,4.091-2.749,7.027l-.369-.358c2.482-2.883,3.155-5.6,2.674-6.455a.5.5,0,0,0-.578-.251c-1.332.193-2.877,3.1-3.364,4.2l-.471-.171c.037-.134,3.712-13.589,1.38-16.472a1.273,1.273,0,0,0-1.123-.487,1.8,1.8,0,0,0-1.316.727c-2.711,3.31-.979,16.135-.957,16.263l-.492.112c-.9-2.845-3.663-10.284-5.68-10.514-.385-.043-.733.209-1.07.765-2.551,4.348,4.99,12.188,5.065,12.268Z" transform="translate(-71.89 -222.525)" fill="#444092"/>
      <path id="Path_529" data-name="Path 529" d="M362.525,401.907s-7.776-8.022-5.1-12.573,7.193,9.8,7.193,9.8-2.342-16.985,2.514-17.28,0,17.28,0,17.28,1.8-4.1,3.556-4.353,1.251,3.476-1.883,7.124Z" transform="translate(-166.01 -177.637)" fill="#cfd8ac"/>
      <path id="Path_530" data-name="Path 530" d="M360.159,399.591c-.321-.337-7.883-8.2-5.139-12.878a1.636,1.636,0,0,1,1.551-1.011c2.006.23,4.209,5.5,5.348,8.653-.374-3.941-.8-11.718,1.337-14.333a2.3,2.3,0,0,1,1.674-.909,1.754,1.754,0,0,1,1.546.674c1.931,2.385.193,10.883-.765,14.857.711-1.161,1.722-2.455,2.754-2.6a1,1,0,0,1,1.07.535c.631,1.15-.225,4.091-2.749,7.027l-.38-.332c2.482-2.883,3.155-5.6,2.674-6.455a.5.5,0,0,0-.578-.251c-1.326.187-2.877,3.1-3.359,4.2l-.476-.166c.037-.134,3.717-13.589,1.38-16.472a1.267,1.267,0,0,0-1.123-.487,1.786,1.786,0,0,0-1.31.727c-2.711,3.31-.979,16.135-.963,16.263l-.433.069c-.893-2.85-3.658-10.284-5.68-10.514-.385-.043-.727.209-1.07.765-2.551,4.348,4.99,12.188,5.065,12.268Z" transform="translate(-164.873 -176.359)" fill="#444092"/>
      <path id="Path_531" data-name="Path 531" d="M783.354,360.1s-7.781-8.022-5.1-12.568,7.193,9.8,7.193,9.8-2.343-16.98,2.513-17.274,0,17.274,0,17.274,1.8-4.1,3.557-4.348,1.252,3.471-1.883,7.118Z" transform="translate(-361.776 -158.192)" fill="#cfd8ac"/>
      <path id="Path_532" data-name="Path 532" d="M781.009,357.782c-.321-.332-7.883-8.2-5.139-12.873a1.636,1.636,0,0,1,1.551-1.011c2.005.225,4.209,5.5,5.348,8.648-.374-3.936-.8-11.718,1.337-14.333a2.31,2.31,0,0,1,1.674-.909,1.765,1.765,0,0,1,1.54.674c1.936,2.385.2,10.883-.759,14.862.711-1.166,1.722-2.455,2.754-2.6a1,1,0,0,1,1.07.508c.631,1.15-.225,4.091-2.749,7.027l-.38-.326c2.482-2.888,3.155-5.6,2.674-6.455a.535.535,0,0,0-.578-.257c-1.326.193-2.877,3.1-3.359,4.2l-.476-.171c.037-.134,3.717-13.589,1.38-16.467a1.241,1.241,0,0,0-1.123-.487,1.776,1.776,0,0,0-1.31.722c-2.711,3.31-.979,16.135-.963,16.269l-.492.107c-.893-2.845-3.663-10.284-5.68-10.514-.385-.043-.727.209-1.07.765-2.551,4.348,4.99,12.194,5.065,12.268Z" transform="translate(-360.651 -156.91)" fill="#444092"/>
      <path id="Path_533" data-name="Path 533" d="M494.221,450.287s-7.781-8.022-5.107-12.568,7.2,9.8,7.2,9.8-2.342-16.98,2.508-17.28,0,17.28,0,17.28,1.8-4.1,3.556-4.353,1.257,3.476-1.883,7.124Z" transform="translate(-227.271 -200.143)" fill="#cfd8ac"/>
      <path id="Path_534" data-name="Path 534" d="M491.859,447.971c-.326-.332-7.883-8.2-5.139-12.873a1.635,1.635,0,0,1,1.546-1.016c2.011.23,4.209,5.5,5.348,8.653-.38-3.941-.808-11.718,1.332-14.333a2.326,2.326,0,0,1,1.674-.909,1.754,1.754,0,0,1,1.546.674c1.931,2.385.2,10.883-.759,14.862.711-1.166,1.717-2.46,2.749-2.6a1,1,0,0,1,1.07.508c.631,1.15-.225,4.091-2.744,7.027l-.385-.332c2.481-2.883,3.155-5.6,2.674-6.455a.535.535,0,0,0-.578-.251c-1.332.193-2.877,3.1-3.364,4.2l-.471-.171c.037-.134,3.712-13.589,1.38-16.472a1.278,1.278,0,0,0-1.123-.487,1.813,1.813,0,0,0-1.316.727c-2.711,3.31-.979,16.135-.963,16.263l-.487.112c-.84-2.845-3.621-10.284-5.653-10.514-.38-.043-.727.209-1.07.765-2.551,4.348,4.99,12.188,5.065,12.268Z" transform="translate(-226.139 -198.866)" fill="#444092"/>
    </g>
  </g>
</svg>
