<svg xmlns="http://www.w3.org/2000/svg" viewBox="0 0 46 46"><defs><style>.cls-1,.cls-2{fill:none;stroke:#fff;stroke-linecap:round;stroke-linejoin:round;}.cls-1{stroke-dasharray:13.73 13.73;}</style></defs><g id="圖層_2" data-name="圖層 2"><g id="圖層_1-2" data-name="圖層 1"><line class="cls-1" x1="0.5" y1="28.22" x2="0.5" y2="17.78"/><path class="cls-2" d="M.5,11.38V8.27A7.77,7.77,0,0,1,8.27.5h2.44"/><path class="cls-2" d="M.5,34.62v3.11A7.77,7.77,0,0,0,8.27,45.5h2.44"/><line class="cls-1" x1="45.5" y1="28.22" x2="45.5" y2="17.78"/><path class="cls-2" d="M45.5,11.38V8.27A7.77,7.77,0,0,0,37.73.5H35.29"/><path class="cls-2" d="M45.5,34.62v3.11a7.77,7.77,0,0,1-7.77,7.77H35.29"/><line class="cls-1" x1="17.78" y1="0.5" x2="28.22" y2="0.5"/><line class="cls-1" x1="17.78" y1="45.5" x2="28.22" y2="45.5"/></g></g></svg>